<?xml version="1.0" encoding="utf-8"?>
<!-- Generator: Adobe Illustrator 22.0.0, SVG Export Plug-In . SVG Version: 6.00 Build 0)  -->
<svg version="1.1" id="Layer_1" xmlns="http://www.w3.org/2000/svg" xmlns:xlink="http://www.w3.org/1999/xlink" x="0px" y="0px"
	 viewBox="0 0 522.1 362.6" style="enable-background:new 0 0 522.1 362.6;" xml:space="preserve">
<style type="text/css">
	.st0{fill:#333333;}
</style>
<path class="st0" d="M522.1,181.3c0,5.9-4.8,10.7-10.7,10.7H10.7C4.8,192,0,187.2,0,181.3s4.8-10.7,10.7-10.7h500.7
	C517.3,170.6,522.1,175.4,522.1,181.3z"/>
<path class="st0" d="M189,3.1c4.2,4.2,4.2,10.9,0,15.1L18.3,188.9c-4.2,4.2-10.9,4.2-15.1,0s-4.2-10.9,0-15.1L173.9,3.1
	C176,1,178.7,0,181.5,0S186.9,1,189,3.1z"/>
<path class="st0" d="M18.3,173.7L189,344.4c4.2,4.2,4.2,10.9,0,15.1c-4.2,4.2-10.9,4.2-15.1,0L3.2,188.8c-4.2-4.2-4.2-10.9,0-15.1
	c2.1-2.1,4.8-3.1,7.6-3.1S16.2,171.7,18.3,173.7z"/>
</svg>
