<?xml version="1.0" encoding="utf-8"?>
<!-- Generator: Adobe Illustrator 22.0.0, SVG Export Plug-In . SVG Version: 6.00 Build 0)  -->
<svg version="1.1" id="Layer_1" xmlns="http://www.w3.org/2000/svg" xmlns:xlink="http://www.w3.org/1999/xlink" x="0px" y="0px"
	 viewBox="0 0 512 450" style="enable-background:new 0 0 512 450;" xml:space="preserve">
<style type="text/css">
	.st0{fill:#50C05A;}
</style>
<path class="st0" d="M512,210h-69.5c-38.3,0-75.5,11.2-107.4,32.5c-27,18-58.3,27.5-90.7,27.5H91v-30h30v-30H91V75
	c0-24.8,20.2-45,45-45s45,20.2,45,45v17.6c-17.5,6.2-30,22.9-30,42.4v15h-30v30h150v-30h-30v-15c0-19.6-12.5-36.2-30-42.4V75
	c0-41.4-33.6-75-75-75S61,33.6,61,75v135H31v30h30v30H0v30h31v45c0,36.2,25.8,66.5,60,73.5V450h30v-30h270v30h30v-31.5
	c34.2-7,60-37.3,60-73.5V240h31V210z"/>
</svg>
