<?xml version="1.0" encoding="utf-8"?>
<!-- Generator: Adobe Illustrator 22.0.0, SVG Export Plug-In . SVG Version: 6.00 Build 0)  -->
<svg version="1.1" id="Capa_1" xmlns="http://www.w3.org/2000/svg" xmlns:xlink="http://www.w3.org/1999/xlink" x="0px" y="0px"
	 viewBox="0 0 390.6 315.5" style="enable-background:new 0 0 390.6 315.5;" xml:space="preserve">
<style type="text/css">
	.st0{fill:#50C05A;}
</style>
<g>
	<path class="st0" d="M389.8,210.8l-43-68.1V17.5L329.3,0h-268L43.8,17.5v125.2l-43,68.1H389.8z M311.8,35v87.4
		c-22.6-5.8-61.5-13-116.5-13s-93.9,7.2-116.5,13V35H311.8z"/>
	<polygon class="st0" points="0,232.3 0,267.3 40.8,267.3 40.8,315.5 75.8,315.5 75.8,267.3 314.8,267.3 314.8,315.5 349.8,315.5 
		349.8,267.3 390.6,267.3 390.6,232.3 	"/>
	<path class="st0" d="M181.1,91.1V70.7c0-12.1-17.6-21.9-39.2-21.9s-39.2,9.8-39.2,21.9v30.6c0,0,23.1-5.8,39-7.3
		C156,92.7,181.1,91.1,181.1,91.1z"/>
	<path class="st0" d="M287.9,101.3V70.7c0-12.1-17.6-21.9-39.2-21.9s-39.2,9.8-39.2,21.9v20.4c0,0,25.1,1.5,39.4,2.9
		C264.8,95.5,287.9,101.3,287.9,101.3z"/>
</g>
</svg>
