<svg xmlns="http://www.w3.org/2000/svg" width="483.01" height="508.648" viewBox="0 0 483.01 508.648">
  <g id="calendar_21_" data-name="calendar(21)" transform="translate(-12.819)">
    <path id="Path_1250" data-name="Path 1250" d="M144.562,200.02a7.5,7.5,0,0,0-7.5-7.5H83.122a7.5,7.5,0,0,0-7.5,7.5v53.939a7.5,7.5,0,0,0,7.5,7.5h53.94a7.5,7.5,0,0,0,7.5-7.5Zm-15,46.439H90.622V207.52h38.94Z" fill="#006ff2"/>
    <path id="Path_1251" data-name="Path 1251" d="M240.717,200.02a7.5,7.5,0,0,0-7.5-7.5h-53.94a7.5,7.5,0,0,0-7.5,7.5v53.939a7.5,7.5,0,0,0,7.5,7.5h53.94a7.5,7.5,0,0,0,7.5-7.5Zm-15,46.439h-38.94V207.52h38.94Z" fill="#006ff2"/>
    <path id="Path_1252" data-name="Path 1252" d="M336.871,200.02a7.5,7.5,0,0,0-7.5-7.5h-53.94a7.5,7.5,0,0,0-7.5,7.5v53.939a7.5,7.5,0,0,0,7.5,7.5h53.94a7.5,7.5,0,0,0,7.5-7.5Zm-15,46.439h-38.94V207.52h38.94Z" fill="#006ff2"/>
    <path id="Path_1253" data-name="Path 1253" d="M371.586,261.459h53.94a7.5,7.5,0,0,0,7.5-7.5V200.02a7.5,7.5,0,0,0-7.5-7.5h-53.94a7.5,7.5,0,0,0-7.5,7.5v53.939A7.5,7.5,0,0,0,371.586,261.459Zm7.5-53.939h38.94v38.939h-38.94Z" fill="#006ff2"/>
    <path id="Path_1254" data-name="Path 1254" d="M144.562,297.636a7.5,7.5,0,0,0-7.5-7.5H83.122a7.5,7.5,0,0,0-7.5,7.5v53.939a7.5,7.5,0,0,0,7.5,7.5h53.94a7.5,7.5,0,0,0,7.5-7.5Zm-15,46.439H90.622V305.136h38.94Z" fill="#006ff2"/>
    <path id="Path_1255" data-name="Path 1255" d="M240.717,297.636a7.5,7.5,0,0,0-7.5-7.5h-53.94a7.5,7.5,0,0,0-7.5,7.5v53.939a7.5,7.5,0,0,0,7.5,7.5h53.94a7.5,7.5,0,0,0,7.5-7.5Zm-15,46.439h-38.94V305.136h38.94Z" fill="#006ff2"/>
    <path id="Path_1256" data-name="Path 1256" d="M336.871,297.636a7.5,7.5,0,0,0-7.5-7.5h-53.94a7.5,7.5,0,0,0-7.5,7.5v53.939a7.5,7.5,0,0,0,7.5,7.5h53.94a7.5,7.5,0,0,0,7.5-7.5Zm-15,46.439h-38.94V305.136h38.94Z" fill="#006ff2"/>
    <path id="Path_1257" data-name="Path 1257" d="M364.086,351.575a7.5,7.5,0,0,0,7.5,7.5h53.94a7.5,7.5,0,0,0,7.5-7.5V297.636a7.5,7.5,0,0,0-7.5-7.5h-53.94a7.5,7.5,0,0,0-7.5,7.5Zm15-46.439h38.94v38.939h-38.94Z" fill="#006ff2"/>
    <path id="Path_1258" data-name="Path 1258" d="M137.062,387.752H83.122a7.5,7.5,0,0,0-7.5,7.5v53.939a7.5,7.5,0,0,0,7.5,7.5h53.94a7.5,7.5,0,0,0,7.5-7.5V395.252A7.5,7.5,0,0,0,137.062,387.752Zm-7.5,53.939H90.622V402.752h38.94Z" fill="#006ff2"/>
    <path id="Path_1259" data-name="Path 1259" d="M233.217,387.752h-53.94a7.5,7.5,0,0,0-7.5,7.5v53.939a7.5,7.5,0,0,0,7.5,7.5h53.94a7.5,7.5,0,0,0,7.5-7.5V395.252A7.5,7.5,0,0,0,233.217,387.752Zm-7.5,53.939h-38.94V402.752h38.94Z" fill="#006ff2"/>
    <path id="Path_1260" data-name="Path 1260" d="M329.371,387.752h-53.94a7.5,7.5,0,0,0-7.5,7.5v53.939a7.5,7.5,0,0,0,7.5,7.5h53.94a7.5,7.5,0,0,0,7.5-7.5V395.252A7.5,7.5,0,0,0,329.371,387.752Zm-7.5,53.939h-38.94V402.752h38.94Z" fill="#006ff2"/>
    <path id="Path_1261" data-name="Path 1261" d="M364.086,449.191a7.5,7.5,0,0,0,7.5,7.5h53.94a7.5,7.5,0,0,0,7.5-7.5V395.252a7.5,7.5,0,0,0-7.5-7.5h-53.94a7.5,7.5,0,0,0-7.5,7.5Zm15-46.439h38.94v38.939h-38.94Z" fill="#006ff2"/>
    <path id="Path_1262" data-name="Path 1262" d="M464.959,55.67h-9.251V26.977a26.977,26.977,0,1,0-53.954,0V55.67H368.5V26.977a26.977,26.977,0,1,0-53.953,0V55.67H281.3V26.977a26.977,26.977,0,1,0-53.953,0V55.67H194.1V26.977a26.977,26.977,0,1,0-53.953,0V55.67H106.892V26.977a26.976,26.976,0,1,0-53.952,0V55.67H43.689a30.906,30.906,0,0,0-30.87,30.87V477.778a30.9,30.9,0,0,0,30.87,30.87H331a7.5,7.5,0,0,0,0-15H43.689a15.888,15.888,0,0,1-15.87-15.87V156.953h95.742a7.5,7.5,0,1,0,0-15H27.819V86.54a15.888,15.888,0,0,1,15.87-15.87H52.94V81.73a26.977,26.977,0,0,0,53.954,0V70.67h33.251V81.73a26.977,26.977,0,0,0,53.954,0V70.67H227.35V81.73a26.977,26.977,0,0,0,53.954,0V70.67h33.25V81.73a26.977,26.977,0,1,0,53.954,0V70.67h33.251V81.73a26.977,26.977,0,1,0,53.954,0V70.67h9.251a15.888,15.888,0,0,1,15.87,15.87v55.413H153.562a7.5,7.5,0,0,0,0,15H480.83V477.778a15.888,15.888,0,0,1-15.87,15.87H361a7.5,7.5,0,0,0,0,15H464.959a30.906,30.906,0,0,0,30.87-30.87V86.54a30.906,30.906,0,0,0-30.87-30.87ZM91.893,81.73a11.977,11.977,0,0,1-23.954,0V26.977a11.977,11.977,0,0,1,23.955,0V81.73Zm87.2,0a11.977,11.977,0,0,1-23.954,0V26.977a11.977,11.977,0,0,1,23.954,0Zm87.2,0a11.977,11.977,0,0,1-23.954,0V26.977a11.977,11.977,0,0,1,23.954,0Zm87.2,0a11.977,11.977,0,1,1-23.954,0V26.977a11.977,11.977,0,1,1,23.954,0Zm87.2,0a11.977,11.977,0,1,1-23.954,0V26.977a11.977,11.977,0,1,1,23.954,0Z" fill="#006ff2"/>
  </g>
</svg>
