<?xml version="1.0" encoding="utf-8"?>
<!-- Generator: Adobe Illustrator 22.0.0, SVG Export Plug-In . SVG Version: 6.00 Build 0)  -->
<svg version="1.1" id="Isolation_Mode" xmlns="http://www.w3.org/2000/svg" xmlns:xlink="http://www.w3.org/1999/xlink" x="0px"
	 y="0px" viewBox="0 0 515.7 447.9" style="enable-background:new 0 0 515.7 447.9;" xml:space="preserve">
<style type="text/css">
	.st0{fill:#FFFFFF;}
</style>
<g>
	<path class="st0" d="M446.5,85.6l-54.1-0.3L340.6,7.9c-3.1-4.8-8.5-7.9-14.2-7.9H186.7c-5.7,0-10.8,3.1-13.9,7.7l-53.6,77.6
		l-50.2,0.3c-38,0-69.1,31.2-69.1,69.1v223.6c0,38,31.2,69.7,69.1,69.7h377.4c38,0,69.1-31.7,69.1-69.7V154.7
		C515.7,116.7,484.5,85.6,446.5,85.6z M481.7,378.2c0,19.3-15.9,35.7-35.1,35.7H69.1c-19.3,0-35.1-16.4-35.1-35.7V154.7
		c0-19.3,15.9-35.1,35.1-35.1h59.2c5.7,0,10.8-3.1,13.9-7.6l53.6-77.6h121.5l51.6,77.1c3.1,4.5,8.5,7.6,13.9,7.6l63.5,0.6
		c19.3,0,35.1,15.9,35.1,35.1v223.6L481.7,378.2L481.7,378.2z"/>
	<path class="st0" d="M259.2,126.4c-66.6,0-120.4,54.1-120.4,120.4s54.1,120.4,120.4,120.4s120.4-54.1,120.4-120.4
		S325.5,126.4,259.2,126.4z M259.2,333.2c-47.6,0-86.4-38.8-86.4-86.4s38.8-86.4,86.4-86.4s86.4,38.8,86.4,86.4
		S306.9,333.2,259.2,333.2z"/>
</g>
</svg>
