<?xml version="1.0" encoding="utf-8"?>
<!-- Generator: Adobe Illustrator 22.0.0, SVG Export Plug-In . SVG Version: 6.00 Build 0)  -->
<svg version="1.1" id="Layer_1" xmlns="http://www.w3.org/2000/svg" xmlns:xlink="http://www.w3.org/1999/xlink" x="0px" y="0px"
	 viewBox="0 0 426.7 512" style="enable-background:new 0 0 426.7 512;" xml:space="preserve">
<style type="text/css">
	.st0{fill:#FFFFFF;}
</style>
<path class="st0" d="M426.7,42.7V0H64C28.8,0,0,28.8,0,64v384c0,35.2,28.8,64,64,64h341.3c11.7,0,21.3-9.6,21.3-21.3v-384
	c0-11.7-9.6-21.3-21.3-21.3H384V42.7H426.7z M384,469.3H64c-11.7,0-21.3-9.6-21.3-21.3V124.3c6.9,2.4,14.1,3.7,21.3,3.7h149.3v106.7
	c0.3,15.5,16.8,25.9,30.9,19.2l33.1-16.5l33.1,16.5c13.9,6.7,30.7-3.5,30.9-19.2V128H384V469.3z M256,128h42.7v72.3l-11.7-5.9
	c-6.1-2.9-13.1-2.9-19.2,0l-11.7,5.9V128z M341.3,85.3H64c-11.7,0-21.3-9.6-21.3-21.3S52.3,42.7,64,42.7h277.3V85.3z"/>
<path class="st0" d="M128,298.7h170.7v42.7H128V298.7z"/>
<path class="st0" d="M128,384h170.7v42.7H128V384z"/>
</svg>
