<?xml version="1.0" encoding="utf-8"?>
<!-- Generator: Adobe Illustrator 22.0.0, SVG Export Plug-In . SVG Version: 6.00 Build 0)  -->
<svg version="1.1" id="Capa_1" xmlns="http://www.w3.org/2000/svg" xmlns:xlink="http://www.w3.org/1999/xlink" x="0px" y="0px"
	 viewBox="0 0 384 512" style="enable-background:new 0 0 384 512;" xml:space="preserve">
<style type="text/css">
	.st0{fill:#FF0000;}
</style>
<g>
	<g>
		<path class="st0" d="M382.9,299.8c-5.9-76.4-41.4-124.2-72.8-166.4C281.1,94.2,256,60.5,256,10.7c0-4-2.2-7.7-5.8-9.5
			c-3.6-1.8-7.8-1.5-11.1,0.8C192,35.7,152.7,92.5,139,146.7c-9.5,37.7-10.8,80.2-11,108.2c-43.5-9.3-53.4-74.4-53.5-75.1
			c-0.5-3.4-2.6-6.3-5.6-7.9c-3-1.6-6.6-1.7-9.7-0.2c-2.3,1.1-56,28.4-59.1,137.4C0,312.7,0,316.4,0,320c0,105.9,86.1,192,192,192
			c0.1,0,0.3,0,0.4,0c0,0,0.1,0,0.1,0C298.2,511.7,384,425.7,384,320C384,314.7,382.9,299.8,382.9,299.8z M192,490.7
			c-35.3,0-64-30.6-64-68.2c0-1.3,0-2.6,0.1-4.2c0.4-15.9,3.4-26.7,6.7-33.9C141,397.7,152.1,410,170,410c5.9,0,10.7-4.8,10.7-10.7
			c0-15.2,0.3-32.7,4.1-48.5c3.4-14,11.4-28.9,21.6-40.9c4.5,15.5,13.4,28.1,22,40.3c12.3,17.5,25.1,35.7,27.3,66.6
			c0.1,1.8,0.3,3.7,0.3,5.7C256,460.1,227.3,490.7,192,490.7z"/>
	</g>
</g>
</svg>
