<?xml version="1.0" encoding="utf-8"?>
<!-- Generator: Adobe Illustrator 22.0.0, SVG Export Plug-In . SVG Version: 6.00 Build 0)  -->
<svg version="1.1" id="Capa_1" xmlns="http://www.w3.org/2000/svg" xmlns:xlink="http://www.w3.org/1999/xlink" x="0px" y="0px"
	 viewBox="0 0 45.4 45.4" style="enable-background:new 0 0 45.4 45.4;" xml:space="preserve">
<style type="text/css">
	.st0{fill:#50C05A;}
</style>
<g>
	<g>
		<path class="st0" d="M43.5,12.7l-18.3-12c-1.5-1-3.5-1-5,0l-18.4,12c-1.1,0.8-1.5,2.3-0.7,3.4c0.8,1.1,2.3,1.5,3.4,0.7L22.7,5
			l18.1,11.8c0.4,0.3,0.9,0.4,1.3,0.4c0.8,0,1.6-0.4,2.1-1.1C45,15,44.7,13.5,43.5,12.7z"/>
		<path class="st0" d="M38.9,27.6c-0.2-0.9-0.9-1.5-1.8-1.5h-1l-0.4-4c-0.4-4.3-3.9-7.5-8.2-7.5h-9.6c-4.3,0-7.8,3.2-8.2,7.5l-0.4,4
			h-1c-0.9,0-1.6,0.6-1.8,1.5L5,36.1c-0.2,1.1,0.1,2.1,0.8,3c0.7,0.8,1.6,1.3,2.7,1.3v1.4c0,2,1.6,3.6,3.6,3.6h1.1
			c2,0,3.6-1.6,3.6-3.6v-1.4h11.7v1.4c0,2,1.6,3.6,3.6,3.6h1.1c2,0,3.6-1.6,3.6-3.6v-1.4c1,0,2-0.5,2.6-1.3c0.7-0.8,1-1.9,0.8-3
			L38.9,27.6z M11.6,37.1c-1.7,0-3.1-1.4-3.1-3.1S10,31,11.6,31c1.7,0,3.1,1.4,3.1,3.1C14.7,35.7,13.3,37.1,11.6,37.1z M12.4,26.1
			l0.4-3.7c0.3-2.7,2.5-4.7,5.2-4.7h0.6v1.2c0,1,0.8,1.8,1.8,1.8h4.9c1,0,1.8-0.8,1.8-1.8v-1.2h0.5c2.7,0,4.9,2,5.2,4.7l0.4,3.7
			L12.4,26.1L12.4,26.1z M33.8,37.1c-1.7,0-3.1-1.4-3.1-3.1s1.4-3.1,3.1-3.1c1.7,0,3.1,1.4,3.1,3.1C36.8,35.7,35.4,37.1,33.8,37.1z"
			/>
	</g>
</g>
</svg>
