<?xml version="1.0" encoding="utf-8"?>
<!-- Generator: Adobe Illustrator 22.0.0, SVG Export Plug-In . SVG Version: 6.00 Build 0)  -->
<svg version="1.1" id="Capa_1" xmlns="http://www.w3.org/2000/svg" xmlns:xlink="http://www.w3.org/1999/xlink" x="0px" y="0px"
	 viewBox="0 0 442.8 406.5" style="enable-background:new 0 0 442.8 406.5;" xml:space="preserve">
<g>
	<g>
		<path d="M361.1,0H81.8C36.7,0,0,36.7,0,81.8v170c0,45.1,36.7,81.8,81.8,81.8h192.8l69.7,69.7c2.1,2.1,4.9,3.2,7.7,3.2
			c1.4,0,2.8-0.3,4.2-0.8c4.1-1.7,6.7-5.7,6.7-10.1v-62c44.3-1,80-37.3,80-81.8v-170C442.8,36.7,406.2,0,361.1,0z M421,251.8
			c0,33.1-26.9,60-60,60H352c-6,0-10.9,4.9-10.9,10.9v46.6L286.8,315c-2-2-4.8-3.2-7.7-3.2H81.8c-33.1,0-60-26.9-60-60v-170
			c0-33.1,26.9-60,60-60h279.3c33.1,0,60,26.9,60,60L421,251.8L421,251.8z"/>
		<path d="M119.2,143.1c-13.5,0-24.5,11-24.5,24.5c0,13.6,11,24.5,24.5,24.5c13.5,0,24.5-11,24.5-24.5
			C143.7,154,132.7,143.1,119.2,143.1z"/>
		<path d="M221.4,143.1c-13.5,0-24.5,11-24.5,24.5c0,13.6,11,24.5,24.5,24.5c13.5,0,24.5-11,24.5-24.5
			C245.9,154,235,143.1,221.4,143.1z"/>
		<path d="M323.6,143.1c-13.5,0-24.5,11-24.5,24.5c0,13.6,11,24.5,24.5,24.5c13.5,0,24.5-11,24.5-24.5
			C348.2,154,337.2,143.1,323.6,143.1z"/>
	</g>
</g>
</svg>
