<?xml version="1.0" encoding="utf-8"?>
<!-- Generator: Adobe Illustrator 22.0.0, SVG Export Plug-In . SVG Version: 6.00 Build 0)  -->
<svg version="1.1" id="Layer_1" xmlns="http://www.w3.org/2000/svg" xmlns:xlink="http://www.w3.org/1999/xlink" x="0px" y="0px"
	 viewBox="0 0 400 214.1" style="enable-background:new 0 0 400 214.1;" xml:space="preserve">
<style type="text/css">
	.st0{display:none;}
	.st1{display:inline;}
	.st2{fill:#FFFFFF;}
	.st3{fill:none;stroke:#DDDDDD;stroke-width:2;stroke-linecap:round;stroke-linejoin:round;}
	.st4{fill:none;stroke:#F5AB35;stroke-width:2;stroke-linecap:round;stroke-linejoin:round;}
	.st5{fill:#FFFFFF;stroke:#DDDDDD;stroke-width:2;stroke-linecap:round;stroke-linejoin:round;}
	.st6{fill:#56BC63;}
	.st7{fill:#454545;}
	.st8{fill:#DDDDDD;}
</style>
<g class="st0">
	<g class="st1">
		<g>
			<g>
				<polygon class="st2" points="59,139 59,89 53.8,89 72.3,70.5 101.8,70.5 120.3,89 115,89 115,139 				"/>
				<polygon class="st2" points="100.5,73.5 73.5,73.5 61,86 113,86 				"/>
				<g>
					<line class="st3" x1="61" y1="86" x2="113" y2="86"/>
					<line class="st4" x1="73.5" y1="73.5" x2="100.5" y2="73.5"/>
					<line class="st3" x1="65.2" y1="81.8" x2="108.9" y2="81.8"/>
					<line class="st3" x1="69.4" y1="77.6" x2="104.7" y2="77.6"/>
				</g>
				<polygon class="st3" points="100.5,73.5 73.5,73.5 61,86 113,86 				"/>
				<polygon class="st3" points="112,86 105.8,79.7 99.5,86 62,86 62,136 112,136 112,86 				"/>
				<rect x="73" y="120.4" class="st3" width="3.1" height="6.2"/>
				<rect x="85.5" y="120.4" class="st3" width="3.1" height="6.2"/>
				<rect x="98" y="120.4" class="st3" width="3.1" height="6.2"/>
				<line class="st3" x1="66" y1="107.9" x2="108" y2="107.9"/>
				<rect x="60" y="87" class="st2" width="54" height="2"/>
				<line class="st3" x1="66" y1="132.9" x2="108" y2="132.9"/>
				<rect x="73" y="95.4" class="st3" width="3.1" height="6.2"/>
				<rect x="85.5" y="95.4" class="st3" width="3.1" height="6.2"/>
				<rect x="98" y="95.4" class="st3" width="3.1" height="6.2"/>
				<rect x="91.7" y="67.2" class="st3" width="3.1" height="6.2"/>
				<line class="st3" x1="95.9" y1="67.2" x2="90.7" y2="67.2"/>
				<line class="st3" x1="112" y1="136" x2="115.2" y2="136"/>
				<line class="st3" x1="58.9" y1="136" x2="62" y2="136"/>
			</g>
			<g>
				<polygon class="st2" points="27.8,139 27.8,114 22.6,114 41.1,95.5 70.6,95.5 89.1,114 83.8,114 83.8,139 				"/>
				<polygon class="st2" points="69.3,98.5 42.3,98.5 29.8,111 81.8,111 				"/>
				<line class="st3" x1="27.7" y1="136" x2="80.8" y2="136"/>
				<g>
					<line class="st3" x1="29.8" y1="111" x2="81.8" y2="111"/>
					<line class="st3" x1="42.3" y1="98.5" x2="69.3" y2="98.5"/>
					<line class="st3" x1="34" y1="106.8" x2="77.7" y2="106.8"/>
					<line class="st3" x1="38.2" y1="102.6" x2="73.5" y2="102.6"/>
				</g>
				<polygon class="st3" points="69.3,98.5 42.3,98.5 29.8,111 81.8,111 				"/>
				<polygon class="st3" points="62.1,111 55.8,104.7 49.6,111 30.8,111 30.8,136 45.4,136 66.3,136 80.8,136 80.8,111 				"/>
				<rect x="41.8" y="120.3" class="st3" width="3.1" height="6.2"/>
				<rect x="66.8" y="120.3" class="st3" width="3.1" height="6.2"/>
				<rect x="52.7" y="120.3" class="st3" width="6.2" height="15.6"/>
				<rect x="28.8" y="112" class="st2" width="54" height="2"/>
				<line class="st3" x1="34.8" y1="132.8" x2="48.7" y2="132.8"/>
				<line class="st3" x1="63" y1="132.8" x2="76.8" y2="132.8"/>
				<rect x="48" y="92.2" class="st3" width="3.1" height="6.2"/>
				<line class="st3" x1="52.1" y1="92.2" x2="47" y2="92.2"/>
			</g>
		</g>
		<g>
			<g>
				<polygon class="st2" points="144.3,48.5 129.8,48.5 117.3,61 156.8,61 				"/>
				<g>
					<line class="st3" x1="117.3" y1="61" x2="156.8" y2="61"/>
					<line class="st3" x1="129.8" y1="48.5" x2="144.3" y2="48.5"/>
					<line class="st3" x1="121.5" y1="56.8" x2="152.7" y2="56.8"/>
					<line class="st3" x1="125.7" y1="52.6" x2="148.5" y2="52.6"/>
				</g>
				<polygon class="st3" points="144.3,48.5 129.8,48.5 117.3,61 156.8,61 				"/>
				<polygon class="st3" points="130.9,61 124.6,54.7 118.4,61 118.3,61 118.3,136 155.8,136 155.8,61 				"/>
				<rect x="129.3" y="120.3" class="st3" width="3.1" height="6.2"/>
				<line class="st3" x1="122.3" y1="82.8" x2="151.8" y2="82.8"/>
				<rect x="116.3" y="62" class="st2" width="41.5" height="2"/>
				<line class="st3" x1="122.3" y1="132.8" x2="151.8" y2="132.8"/>
				<rect x="129.3" y="70.3" class="st3" width="3.1" height="6.2"/>
				<rect x="141.8" y="70.3" class="st3" width="3.1" height="6.2"/>
				<rect x="129.3" y="95.4" class="st3" width="3.1" height="6.2"/>
				<rect x="141.8" y="120.3" class="st3" width="3.1" height="6.2"/>
				<rect x="141.8" y="95.4" class="st3" width="3.1" height="6.2"/>
				<line class="st3" x1="122.3" y1="107.9" x2="151.8" y2="107.9"/>
			</g>
			<g>
				<polygon class="st2" points="140.3,139 140.3,89 135.1,89 153.6,70.5 183.1,70.5 201.6,89 196.3,89 196.3,139 				"/>
				<polygon class="st5" points="181.8,73.5 154.8,73.5 142.3,86 194.3,86 				"/>
				<g>
					<line class="st3" x1="142.3" y1="86" x2="194.3" y2="86"/>
					<line class="st3" x1="154.8" y1="73.5" x2="181.8" y2="73.5"/>
					<line class="st3" x1="146.5" y1="81.8" x2="190.2" y2="81.8"/>
					<line class="st3" x1="150.7" y1="77.6" x2="186" y2="77.6"/>
				</g>
				<polygon class="st3" points="181.8,73.5 154.8,73.5 142.3,86 194.3,86 				"/>
				<polygon class="st3" points="193.3,86 187.1,79.7 180.8,86 143.3,86 143.3,136 193.3,136 193.3,86 				"/>
				<rect x="154.3" y="120.4" class="st3" width="3.1" height="6.2"/>
				<rect x="166.8" y="120.4" class="st3" width="3.1" height="6.2"/>
				<rect x="179.3" y="120.4" class="st3" width="3.1" height="6.2"/>
				<line class="st3" x1="147.3" y1="107.9" x2="189.3" y2="107.9"/>
				<rect x="141.3" y="87" class="st2" width="54" height="2"/>
				<line class="st3" x1="147.3" y1="132.9" x2="189.3" y2="132.9"/>
				<rect x="154.3" y="95.4" class="st3" width="3.1" height="6.2"/>
				<rect x="166.8" y="95.4" class="st3" width="3.1" height="6.2"/>
				<rect x="179.3" y="95.4" class="st3" width="3.1" height="6.2"/>
				<rect x="173" y="67.2" class="st5" width="3.1" height="6.2"/>
				<line class="st5" x1="177.1" y1="67.2" x2="172" y2="67.2"/>
				<line class="st3" x1="193.3" y1="136" x2="196.5" y2="136"/>
			</g>
		</g>
		<g>
			<g>
				<polygon class="st2" points="234,139 234,61 228.8,61 247.3,42.5 276.8,42.5 295.3,61 290,61 290,139 				"/>
				<polygon class="st2" points="275.5,45.5 248.5,45.5 236,58 288,58 				"/>
				<g>
					<line class="st4" x1="236" y1="58" x2="288" y2="58"/>
					<line class="st4" x1="248.5" y1="45.5" x2="275.5" y2="45.5"/>
					<line class="st3" x1="240.2" y1="53.8" x2="283.9" y2="53.8"/>
					<line class="st3" x1="244.4" y1="49.6" x2="279.7" y2="49.6"/>
				</g>
				<polygon class="st3" points="275.5,45.5 248.5,45.5 236,58 288,58 				"/>
				<polygon class="st5" points="237,58 243.3,51.7 249.5,58 287,58 287,136 237,136 237,58 				"/>
				<rect x="248" y="120.4" class="st3" width="3.1" height="6.2"/>
				<rect x="260.5" y="120.4" class="st3" width="3.1" height="6.2"/>
				<rect x="273" y="120.4" class="st3" width="3.1" height="6.2"/>
				<line class="st3" x1="241" y1="79.8" x2="283" y2="79.8"/>
				<rect x="235" y="59" class="st2" width="54" height="2"/>
				<line class="st3" x1="241" y1="132.9" x2="283" y2="132.9"/>
				<rect x="248" y="67.3" class="st3" width="3.1" height="6.2"/>
				<rect x="260.5" y="67.3" class="st3" width="3.1" height="6.2"/>
				<rect x="273" y="67.3" class="st3" width="3.1" height="6.2"/>
				<rect x="266.7" y="39.2" class="st3" width="3.1" height="6.2"/>
				<line class="st3" x1="270.9" y1="39.2" x2="265.7" y2="39.2"/>
				<line class="st3" x1="287" y1="136" x2="290.2" y2="136"/>
				<line class="st3" x1="233.9" y1="136" x2="237" y2="136"/>
				<rect x="248" y="92.3" class="st3" width="3.1" height="6.2"/>
				<rect x="260.5" y="92.3" class="st3" width="3.1" height="6.2"/>
				<rect x="273" y="92.3" class="st3" width="3.1" height="6.2"/>
				<line class="st3" x1="241" y1="104.8" x2="283" y2="104.8"/>
			</g>
			<g>
				<polygon class="st2" points="202.8,139 202.8,114 197.6,114 216.1,95.5 245.6,95.5 264.1,114 258.8,114 258.8,139 				"/>
				<polygon class="st2" points="244.3,98.5 217.3,98.5 204.8,111 256.8,111 				"/>
				<line class="st3" x1="202.7" y1="136" x2="255.8" y2="136"/>
				<g>
					<line class="st3" x1="204.8" y1="111" x2="256.8" y2="111"/>
					<line class="st3" x1="217.3" y1="98.5" x2="244.3" y2="98.5"/>
					<line class="st3" x1="209" y1="106.8" x2="252.7" y2="106.8"/>
					<line class="st3" x1="213.2" y1="102.6" x2="248.5" y2="102.6"/>
				</g>
				<polygon class="st3" points="244.3,98.5 217.3,98.5 204.8,111 256.8,111 				"/>
				<polygon class="st3" points="255.8,111 255.8,136 241.3,136 220.4,136 205.8,136 205.8,111 212.1,104.7 218.3,111 243.3,111 
					249.5,104.7 255.8,111 				"/>
				<rect x="216.8" y="120.3" class="st3" width="3.1" height="6.2"/>
				<rect x="241.8" y="120.3" class="st3" width="3.1" height="6.2"/>
				<rect x="227.7" y="120.3" class="st3" width="6.2" height="15.6"/>
				<rect x="203.8" y="112" class="st2" width="54" height="2"/>
				<line class="st3" x1="209.8" y1="132.8" x2="223.7" y2="132.8"/>
				<line class="st3" x1="238" y1="132.8" x2="251.8" y2="132.8"/>
				<rect x="223" y="92.2" class="st3" width="3.1" height="6.2"/>
				<line class="st3" x1="227.1" y1="92.2" x2="222" y2="92.2"/>
			</g>
		</g>
		<g>
			<g>
				<polygon class="st2" points="320.2,48.5 305.7,48.5 293.2,61 332.7,61 				"/>
				<g>
					<line class="st3" x1="293.2" y1="61" x2="332.7" y2="61"/>
					<line class="st3" x1="305.7" y1="48.5" x2="320.2" y2="48.5"/>
					<line class="st3" x1="297.3" y1="56.8" x2="328.5" y2="56.8"/>
					<line class="st3" x1="301.5" y1="52.6" x2="324.3" y2="52.6"/>
				</g>
				<polygon class="st3" points="320.2,48.5 305.7,48.5 293.2,61 332.7,61 				"/>
				<polygon class="st5" points="306.7,61 300.5,54.7 294.2,61 294.2,61 294.2,111 331.7,111 331.7,61 				"/>
				<rect x="305.1" y="95.4" class="st3" width="3.1" height="6.2"/>
				<line class="st3" x1="298.2" y1="82.8" x2="327.7" y2="82.8"/>
				<rect x="292.2" y="62" class="st2" width="41.5" height="2"/>
				<line class="st3" x1="298.2" y1="107.9" x2="327.7" y2="107.9"/>
				<rect x="305.1" y="70.3" class="st3" width="3.1" height="6.2"/>
				<rect x="317.6" y="70.3" class="st3" width="3.1" height="6.2"/>
			</g>
			<g>
				<polygon class="st2" points="316.2,139 316.2,89 310.9,89 329.4,70.5 358.9,70.5 377.4,89 372.2,89 372.2,139 				"/>
				<polygon class="st2" points="357.7,73.5 330.7,73.5 318.2,86 370.2,86 				"/>
				<g>
					<line class="st3" x1="318.2" y1="86" x2="370.2" y2="86"/>
					<line class="st3" x1="330.7" y1="73.5" x2="357.7" y2="73.5"/>
					<line class="st3" x1="322.3" y1="81.8" x2="366" y2="81.8"/>
					<line class="st3" x1="326.5" y1="77.6" x2="361.8" y2="77.6"/>
				</g>
				<polygon class="st3" points="357.7,73.5 330.7,73.5 318.2,86 370.2,86 				"/>
				<polygon class="st5" points="369.2,86 362.9,79.7 356.7,86 319.2,86 319.2,136 369.2,136 369.2,86 				"/>
				<rect x="330.1" y="120.4" class="st3" width="3.1" height="6.2"/>
				<rect x="342.6" y="120.4" class="st3" width="3.1" height="6.2"/>
				<rect x="355.1" y="120.4" class="st3" width="3.1" height="6.2"/>
				<line class="st3" x1="323.2" y1="107.9" x2="365.2" y2="107.9"/>
				<rect x="317.2" y="87" class="st2" width="54" height="2"/>
				<line class="st3" x1="323.2" y1="132.9" x2="365.2" y2="132.9"/>
				<rect x="330.1" y="95.4" class="st3" width="3.1" height="6.2"/>
				<rect x="342.6" y="95.4" class="st3" width="3.1" height="6.2"/>
				<rect x="355.1" y="95.4" class="st3" width="3.1" height="6.2"/>
				<rect x="348.9" y="67.2" class="st3" width="3.1" height="6.2"/>
				<line class="st3" x1="353" y1="67.2" x2="347.9" y2="67.2"/>
				<line class="st3" x1="369.2" y1="136" x2="372.3" y2="136"/>
				<line class="st3" x1="316" y1="136" x2="319.2" y2="136"/>
			</g>
			<g>
				<polygon class="st2" points="285,139 285,114 279.7,114 298.2,95.5 327.7,95.5 346.2,114 341,114 341,139 				"/>
				<polygon class="st2" points="326.5,98.5 299.5,98.5 287,111 339,111 				"/>
				<g>
					<line class="st3" x1="287" y1="111" x2="339" y2="111"/>
					<line class="st3" x1="299.5" y1="98.5" x2="326.5" y2="98.5"/>
					<line class="st3" x1="291.1" y1="106.8" x2="334.8" y2="106.8"/>
					<line class="st3" x1="295.3" y1="102.6" x2="330.6" y2="102.6"/>
				</g>
				<polygon class="st3" points="326.5,98.5 299.5,98.5 287,111 339,111 				"/>
				<polygon class="st5" points="300.5,111 294.2,104.7 288,111 288,136 302.5,136 323.4,136 338,136 338,111 				"/>
				<rect x="311.4" y="120.3" class="st3" width="3.1" height="6.2"/>
				<rect x="323.9" y="120.3" class="st3" width="3.1" height="6.2"/>
				<rect x="286" y="112" class="st2" width="54" height="2"/>
				<line class="st4" x1="320.1" y1="132.8" x2="334" y2="132.8"/>
				<line class="st3" x1="292" y1="132.8" x2="293.3" y2="132.8"/>
				<line class="st3" x1="307.6" y1="132.8" x2="334" y2="132.8"/>
				<rect x="305.1" y="92.2" class="st5" width="3.1" height="6.2"/>
				<line class="st3" x1="309.2" y1="92.2" x2="304.1" y2="92.2"/>
				<rect x="297.3" y="120.3" class="st5" width="6.2" height="15.6"/>
			</g>
		</g>
	</g>
</g>
<g>
	<g>
		<path class="st6" d="M145.6,127.8h1.7l4.5,7.1v-7.1h2.2v10.8h-1.7l-4.5-7.1v7.1h-2.2V127.8z"/>
		<path class="st6" d="M157,138.3c-0.5-0.2-0.9-0.7-1.1-1.2c-0.2-0.6-0.4-1.4-0.4-2.4c0-1.1,0.1-1.9,0.4-2.5c0.2-0.6,0.6-1,1.1-1.2
			c0.5-0.2,1.2-0.3,2.1-0.3c0.9,0,1.6,0.1,2.1,0.4c0.5,0.2,0.9,0.6,1.1,1.2c0.2,0.6,0.4,1.4,0.4,2.4s-0.1,1.9-0.4,2.4
			c-0.2,0.6-0.6,1-1.1,1.2c-0.5,0.2-1.2,0.4-2.1,0.4C158.2,138.7,157.5,138.6,157,138.3z M160,136.8c0.2-0.1,0.3-0.3,0.4-0.6
			c0.1-0.3,0.1-0.8,0.1-1.5s0-1.2-0.1-1.5c-0.1-0.3-0.2-0.5-0.4-0.6s-0.5-0.2-0.9-0.2c-0.4,0-0.7,0.1-0.8,0.2s-0.3,0.3-0.4,0.6
			c-0.1,0.3-0.1,0.8-0.1,1.5s0,1.2,0.1,1.5c0.1,0.3,0.2,0.5,0.4,0.6c0.2,0.1,0.5,0.2,0.8,0.2C159.5,137,159.8,136.9,160,136.8z"/>
		<path class="st6" d="M168,127.8h2.2v10.8H168V127.8z"/>
		<path class="st6" d="M171.9,130.8h1.8l0.4,0.8c0.4-0.3,0.8-0.5,1.2-0.7c0.4-0.2,0.9-0.2,1.4-0.2c0.5,0,0.9,0.1,1.2,0.3
			c0.3,0.2,0.6,0.5,0.8,0.8c0.4-0.3,0.8-0.6,1.3-0.8c0.5-0.2,1-0.3,1.4-0.3c0.9,0,1.5,0.2,1.9,0.7c0.4,0.5,0.6,1.2,0.6,2.1v5.1h-2.2
			v-4.9c0-0.4-0.1-0.7-0.3-0.8c-0.2-0.2-0.5-0.3-0.8-0.3c-0.3,0-0.6,0.1-0.9,0.2c-0.3,0.1-0.6,0.3-0.8,0.4c0,0.3,0.1,0.4,0.1,0.6
			v4.9h-2.2v-4.9c0-0.4-0.1-0.7-0.3-0.8c-0.2-0.2-0.5-0.3-0.8-0.3c-0.5,0-1.1,0.2-1.6,0.6v5.5h-2.2V130.8z"/>
		<path class="st6" d="M185.8,138.2c-0.4-0.4-0.5-0.8-0.5-1.5V136c0-0.6,0.2-1.1,0.7-1.5c0.4-0.4,1.1-0.6,1.9-0.6h2v-0.5
			c0-0.3,0-0.5-0.1-0.6c-0.1-0.2-0.3-0.3-0.5-0.3c-0.2-0.1-0.6-0.1-1.1-0.1h-2.4v-1.3c1-0.3,2-0.4,3.1-0.4c1,0,1.8,0.2,2.3,0.6
			s0.8,1.1,0.8,2v5.3h-1.7l-0.4-0.8c-0.1,0.1-0.3,0.2-0.6,0.4c-0.3,0.1-0.6,0.3-1,0.4c-0.4,0.1-0.8,0.2-1.1,0.2
			C186.6,138.7,186.1,138.6,185.8,138.2z M189.2,137.1c0.3-0.1,0.5-0.2,0.6-0.2V135l-1.3,0.1c-0.7,0.1-1.1,0.4-1.1,1v0.3
			c0,0.6,0.3,0.8,1,0.8C188.6,137.2,188.9,137.2,189.2,137.1z"/>
		<path class="st6" d="M201,132l-1.2,0.2c0.2,0.2,0.3,0.4,0.4,0.6c0.1,0.2,0.2,0.6,0.2,1c0,0.7-0.2,1.3-0.7,1.7s-1.2,0.7-2.1,0.7
			h-1.4c-0.6,0-0.9,0.2-0.9,0.5c0,0.2,0.1,0.3,0.2,0.3s0.3,0.1,0.5,0.1h2.2c0.9,0,1.6,0.2,2.1,0.6s0.7,1,0.7,1.8v0.2
			c0,0.8-0.2,1.4-0.7,1.8s-1.2,0.7-2.2,0.7h-2.4c-0.8,0-1.4-0.2-1.9-0.5c-0.5-0.3-0.7-0.8-0.7-1.4v-0.2c0-0.4,0.1-0.7,0.3-1
			c0.2-0.3,0.5-0.5,0.9-0.7c-0.5-0.3-0.8-0.7-0.8-1.3c0-0.4,0.1-0.7,0.3-1c0.2-0.3,0.5-0.5,1-0.5c-0.4-0.2-0.8-0.5-1-0.9
			c-0.2-0.4-0.3-0.8-0.3-1.3c0-0.9,0.3-1.5,0.8-1.9c0.5-0.4,1.4-0.6,2.5-0.6h4.3V132z M196.2,138.8c-0.3,0-0.6,0.1-0.8,0.2
			s-0.3,0.4-0.3,0.7v0.2c0,0.3,0.1,0.5,0.3,0.6c0.2,0.1,0.5,0.2,0.8,0.2h1.5c0.4,0,0.7-0.1,0.9-0.2s0.3-0.4,0.3-0.6v-0.2
			c0-0.3-0.1-0.5-0.3-0.6c-0.2-0.1-0.5-0.2-0.9-0.2H196.2z M198.2,134.3c0.2-0.2,0.2-0.5,0.2-0.8c0-0.4-0.1-0.7-0.3-0.9
			s-0.4-0.3-0.8-0.3h-0.8c-0.4,0-0.7,0.1-0.8,0.2c-0.2,0.2-0.3,0.4-0.3,0.8c0,0.4,0.1,0.7,0.3,0.8c0.2,0.2,0.4,0.3,0.8,0.3h0.8
			C197.7,134.6,198,134.5,198.2,134.3z"/>
		<path class="st6" d="M203.3,138.4c-0.5-0.2-0.9-0.6-1.1-1.2c-0.2-0.6-0.3-1.4-0.3-2.4c0-1.1,0.1-1.9,0.3-2.5
			c0.2-0.6,0.6-1,1.1-1.2c0.5-0.2,1.2-0.4,2.1-0.4c0.8,0,1.4,0.1,1.9,0.2c0.5,0.2,0.8,0.4,1,0.8c0.2,0.4,0.3,0.9,0.3,1.7
			c0,0.8-0.2,1.3-0.7,1.6c-0.4,0.3-1.1,0.5-1.9,0.5h-2c0,0.4,0.1,0.7,0.2,1c0.1,0.2,0.3,0.4,0.6,0.5c0.3,0.1,0.7,0.2,1.2,0.2h2.3
			v1.3c-0.5,0.1-1,0.2-1.4,0.2s-0.9,0.1-1.5,0.1C204.5,138.7,203.8,138.6,203.3,138.4z M205.8,134.2c0.3,0,0.5-0.1,0.7-0.2
			c0.1-0.1,0.2-0.3,0.2-0.6c0-0.4-0.1-0.7-0.3-0.9c-0.2-0.2-0.5-0.3-1-0.3c-0.3,0-0.6,0.1-0.8,0.2c-0.2,0.1-0.3,0.3-0.4,0.6
			c-0.1,0.3-0.1,0.7-0.1,1.2H205.8z"/>
		<path class="st7" d="M213.8,130.3c0-0.9,0.2-1.5,0.7-1.9c0.5-0.4,1.1-0.6,1.7-0.6c1.9,0,3.5,0.1,4.7,0.2v1.8h-4.1
			c-0.3,0-0.5,0.1-0.7,0.2c-0.2,0.2-0.2,0.4-0.2,0.6v1.9l4.3,0.1v1.7l-4.3,0.1v4.2h-2.2V130.3z"/>
		<path class="st7" d="M223.2,138.3c-0.5-0.2-0.9-0.7-1.1-1.2c-0.2-0.6-0.4-1.4-0.4-2.4c0-1.1,0.1-1.9,0.4-2.5
			c0.2-0.6,0.6-1,1.1-1.2c0.5-0.2,1.2-0.3,2.1-0.3c0.9,0,1.6,0.1,2.1,0.4c0.5,0.2,0.9,0.6,1.1,1.2c0.2,0.6,0.4,1.4,0.4,2.4
			s-0.1,1.9-0.4,2.4s-0.6,1-1.1,1.2s-1.2,0.4-2.1,0.4C224.4,138.7,223.7,138.6,223.2,138.3z M226.1,136.8c0.2-0.1,0.3-0.3,0.4-0.6
			c0.1-0.3,0.1-0.8,0.1-1.5s0-1.2-0.1-1.5c-0.1-0.3-0.2-0.5-0.4-0.6s-0.5-0.2-0.9-0.2c-0.4,0-0.7,0.1-0.8,0.2s-0.3,0.3-0.4,0.6
			c-0.1,0.3-0.1,0.8-0.1,1.5s0,1.2,0.1,1.5c0.1,0.3,0.2,0.5,0.4,0.6c0.2,0.1,0.5,0.2,0.8,0.2C225.6,137,225.9,136.9,226.1,136.8z"/>
		<path class="st7" d="M230.9,138.1c-0.4-0.4-0.6-1-0.6-1.8v-5.6h2.2v4.9c0,0.4,0.1,0.7,0.3,0.9s0.5,0.2,0.9,0.2
			c0.3,0,0.6-0.1,0.8-0.2c0.3-0.1,0.5-0.2,0.8-0.4v-5.5h2.2v7.9h-1.8l-0.4-0.8c-0.9,0.6-1.8,0.9-2.7,0.9
			C231.8,138.7,231.3,138.5,230.9,138.1z"/>
		<path class="st7" d="M239,130.8h1.8l0.4,0.8c0.3-0.3,0.7-0.5,1.2-0.7c0.4-0.2,0.9-0.3,1.3-0.3c0.9,0,1.5,0.3,1.9,0.8
			c0.4,0.5,0.6,1.2,0.6,2v5.2h-2.2v-4.9c0-0.4-0.1-0.7-0.3-0.8s-0.5-0.3-0.8-0.3c-0.5,0-1.1,0.2-1.6,0.6v5.5H239V130.8z"/>
		<path class="st7" d="M248.2,137.8c-0.5-0.6-0.7-1.6-0.7-3c0-1,0.1-1.8,0.3-2.4s0.5-1,0.9-1.3c0.4-0.3,1-0.4,1.8-0.4
			c0.6,0,1.3,0.1,2,0.4v-3.6h2.2v11.2h-1.8l-0.4-0.7c-0.3,0.2-0.6,0.4-1,0.6c-0.4,0.2-0.8,0.2-1.2,0.2
			C249.3,138.7,248.6,138.4,248.2,137.8z M252.4,136.6v-3.9c-0.3-0.1-0.5-0.2-0.7-0.2c-0.2-0.1-0.4-0.1-0.6-0.1
			c-0.4,0-0.7,0.1-0.9,0.2c-0.2,0.1-0.4,0.4-0.5,0.7s-0.1,0.8-0.1,1.5c0,0.6,0,1.1,0.1,1.4s0.2,0.6,0.4,0.7c0.2,0.1,0.5,0.2,0.8,0.2
			C251.5,137,252,136.8,252.4,136.6z"/>
	</g>
	<g>
		<path class="st8" d="M239.4,28.4c1.4-1.4,2.8-2.8,4.2-4.1c0.3-0.3,0.9-0.3,1.3-0.3c2.7,0,5.4-0.1,8,0c5.6,0.1,9.7,4.2,9.7,9.8
			c0,19.1,0,38.3,0,57.4c0,5.7-4.2,9.8-10.1,9.8c-10.4,0-20.9,0-31.3,0c-17.5,0-35,0-52.5,0c-0.5,0-0.9,0-1.9,0
			c1.8-1.8,3.3-3.3,4.8-4.7c0.3-0.3,1-0.1,1.5-0.1c25.9,0,51.7,0,77.6,0c0.5,0,1,0,1.6,0c3.6,0,5.5-1.9,5.5-5.5
			c0-10.3,0-20.6,0-30.9c0-8.5,0-16.9,0-25.4c0-3.8-1.8-5.6-5.6-5.6c-4.2,0-8.4,0-12.7,0C239.5,28.6,239.5,28.5,239.4,28.4z"/>
		<path class="st8" d="M138.3,119.7l-0.3-0.3c-0.8-0.8-0.8-2.2,0-3L253.6,0.6c0.8-0.8,2.2-0.8,3,0L257,1c0.8,0.8,0.8,2.2,0,3
			L141.4,119.7C140.5,120.5,139.2,120.5,138.3,119.7z"/>
		<path class="st8" d="M151,96.5c-1.4,1.4-2.7,2.8-4.2,4c-0.4,0.3-1.3,0.2-2,0.1c-4.4-1-7.4-4.8-7.4-9.5c0-10.4,0-20.8,0-31.2
			c0-8.6,0-17.1,0-25.7c0-6.4,4-10.4,10.4-10.4c7.7,0,15.3,0,23,0c1.1,0,1.7-0.3,2.3-1.2c2.5-3.9,5.2-7.7,7.7-11.6
			c0.8-1.2,1.7-1.7,3.2-1.7c10.8,0,21.5,0,32.3,0.1c0.9,0,2.1,0.4,2.6,1c2.5,3.5,4.9,7.1,7.3,10.7c-1.2,1.1-2.3,2.2-3.5,3.4
			c-0.2-0.3-0.5-0.7-0.8-1.1c-1.9-2.8-3.7-5.6-5.7-8.4c-0.3-0.4-1-0.9-1.5-0.9c-9.7-0.1-19.5-0.1-29.2,0c-0.5,0-1.2,0.5-1.5,0.9
			c-2.6,3.8-5.2,7.6-7.7,11.5c-0.9,1.5-2.1,2.1-3.8,2.1c-8.1-0.1-16.3,0-24.4,0c-4,0-5.8,1.8-5.8,5.7c0,18.7,0,37.4,0,56.1
			c0,3.6,1.8,5.5,5.5,5.5c1,0,2.1,0,3.1,0C150.9,96.2,150.9,96.4,151,96.5z"/>
		<path class="st8" d="M185.7,82.2c1.2-1.1,2.3-2.2,3.3-3.1c2.6,0.8,5.1,1.8,7.7,2.3c11.6,2.2,23.5-6.8,24.8-18.5
			c0.5-4.5-0.2-8.8-2.3-12.8c-0.4-0.7-0.3-1.2,0.3-1.7c0.9-0.8,1.7-1.7,2.6-2.6c5.4,7,6.9,20.8-1.6,31.1
			C211.9,87.2,196.5,89.6,185.7,82.2z"/>
		<path class="st8" d="M211.5,36.2c-1.2,1.1-2.2,2.1-3.3,3c-0.4,0.3-1.2,0.3-1.7,0.1c-11.6-3.4-23.6,2.9-27.1,14.4
			c-1.3,4.3-1.3,8.6,0.1,12.9c0.3,0.8,0.2,1.3-0.5,1.9c-0.9,0.9-1.7,1.8-2.6,2.8c-4.1-7.2-4.1-19.6,3.6-28.5
			C187.6,33.8,200.9,30.9,211.5,36.2z"/>
		<path class="st6" d="M238.6,38.4c2.7,0,4.8,2.3,4.7,4.9c-0.1,2.6-2.2,4.7-4.8,4.7c-2.6,0-4.8-2.2-4.8-4.9
			C233.8,40.5,235.9,38.3,238.6,38.4z"/>
	</g>
</g>
<g>
	<g>
		<g>
			<g>
				<g>
					<rect x="261.9" y="203.9" class="st8" width="0.7" height="10.2"/>
				</g>
				<g>
					<path class="st8" d="M261.8,209.1c-2.9,0-5.3-3.7-5.3-8.2c0-4.5,2.4-8.2,5.3-8.2c2.9,0,5.3,3.7,5.3,8.2
						C267.1,205.4,264.7,209.1,261.8,209.1z M261.8,193.3c-2.5,0-4.6,3.4-4.6,7.6s2.1,7.6,4.6,7.6c2.5,0,4.6-3.4,4.6-7.6
						S264.4,193.3,261.8,193.3z"/>
				</g>
				<g>
					
						<rect x="260.6" y="205" transform="matrix(0.6044 -0.7967 0.7967 0.6044 -61.3163 289.6096)" class="st8" width="0.7" height="3"/>
				</g>
			</g>
			<g>
				<g>
					<g>
						<path class="st8" d="M332.8,202.6c-2.9,0-5.5-2.2-5.9-5.2c-0.5-3.3,1.8-6.3,5.1-6.7c3.3-0.5,6.3,1.8,6.7,5.1
							c0.1,0.6,0.1,1.2,0,1.8l-0.7-0.1c0.1-0.5,0.1-1.1,0-1.6c-0.4-2.9-3.1-4.9-6-4.5c-1.4,0.2-2.7,0.9-3.5,2.1
							c-0.9,1.1-1.2,2.5-1,3.9c0.4,2.9,3.1,4.9,6,4.5c0.2,0,0.4-0.1,0.6-0.1l0.2,0.6c-0.2,0.1-0.4,0.1-0.7,0.1
							C333.4,202.6,333.1,202.6,332.8,202.6z"/>
					</g>
					<g>
						<path class="st8" d="M338,205.5c-2,0-3.7-1.4-4.1-3.3l0.6-0.1c0.4,1.8,2.1,3,3.9,2.8c0.9-0.1,1.7-0.6,2.3-1.4
							c0.6-0.7,0.8-1.7,0.7-2.6c-0.2-1.6-1.5-2.8-3.1-3l0.1-0.7c1.9,0.2,3.4,1.7,3.7,3.6c0.2,1.1-0.1,2.2-0.8,3.1
							c-0.7,0.9-1.6,1.5-2.7,1.6C338.4,205.5,338.2,205.5,338,205.5z"/>
					</g>
					<g>
						<path class="st8" d="M333.9,202.2L333.9,202.2c0-0.1,0-0.2,0-0.2c-0.3-2.3,1.3-4.4,3.5-4.7c0.3,0,0.7,0,1,0l-0.1,0.7
							c-0.3,0-0.6,0-0.9,0c-1.9,0.3-3.3,2-3,4c0,0,0,0.1,0,0.1l0,0.1L333.9,202.2z"/>
					</g>
				</g>
				<g>
					
						<rect x="332.6" y="196.7" transform="matrix(1 -5.677433e-03 5.677433e-03 1 -1.1607 1.8933)" class="st8" width="0.7" height="17.4"/>
				</g>
				<g>
					
						<rect x="332.3" y="203" transform="matrix(0.7967 -0.6044 0.6044 0.7967 -54.6651 244.0895)" class="st8" width="6.3" height="0.7"/>
				</g>
			</g>
			<g>
				<path class="st8" d="M251.7,214.1h-7.9V214c-1.1-0.2-1.9-1.1-1.9-2.2c0-1.1,0.8-2,1.9-2.2v-0.1h0.1c0.2-1.4,1.5-2.5,2.9-2.5
					c0.3,0,0.7,0.1,1,0.2c0.4,0.1,0.7,0.4,1,0.6c0.2-0.1,0.4-0.1,0.6-0.1c1.1,0,2,0.8,2.2,1.8h0l0,0.1c1.1,0.2,1.9,1.1,1.9,2.2
					c0,1.1-0.8,2-1.9,2.2V214.1z M244.4,213.4h6.6v-0.1h0.3c0.8,0,1.5-0.7,1.5-1.5c0-0.8-0.7-1.5-1.5-1.5H251l0-0.4
					c0-0.8-0.7-1.5-1.5-1.5c-0.2,0-0.4,0-0.6,0.1l-0.2,0.1l-0.2-0.2c-0.3-0.3-0.6-0.5-0.9-0.6c-0.3-0.1-0.5-0.1-0.8-0.1
					c-1.2,0-2.2,1-2.3,2.2l0,0.3h-0.1v0.1h-0.3c-0.8,0-1.5,0.7-1.5,1.5c0,0.8,0.7,1.5,1.5,1.5L244.4,213.4L244.4,213.4z"/>
			</g>
			<g>
				<g>
					<polygon class="st8" points="252.6,214.1 228.1,214.1 228.1,186.7 228.8,186.7 228.8,213.4 251.9,213.4 251.9,186.7 
						252.6,186.7 					"/>
				</g>
				<g>
					<path class="st8" d="M247.3,211.1h-5.9v-5h5.9V211.1z M242,210.5h4.6v-3.6H242V210.5z"/>
				</g>
				<g>
					<path class="st8" d="M247.3,205.5h-5.9v-5h5.9V205.5z M242,204.9h4.6v-3.6H242V204.9z"/>
				</g>
				<g>
					<path class="st8" d="M247.3,199.9h-5.9v-5h5.9V199.9z M242,199.2h4.6v-3.6H242V199.2z"/>
				</g>
				<g>
					<path class="st8" d="M247.3,194h-5.9v-5h5.9V194z M242,193.3h4.6v-3.6H242V193.3z"/>
				</g>
				<g>
					<path class="st8" d="M238.7,211.1h-5.9v-5h5.9V211.1z M233.4,210.5h4.6v-3.6h-4.6V210.5z"/>
				</g>
				<g>
					<path class="st8" d="M238.7,205.5h-5.9v-5h5.9V205.5z M233.4,204.9h4.6v-3.6h-4.6V204.9z"/>
				</g>
				<g>
					<path class="st8" d="M238.7,199.9h-5.9v-5h5.9V199.9z M233.4,199.2h4.6v-3.6h-4.6V199.2z"/>
				</g>
				<g>
					<path class="st8" d="M238.7,194h-5.9v-5h5.9V194z M233.4,193.3h4.6v-3.6h-4.6V193.3z"/>
				</g>
				<g>
					<g>
						<rect x="228.7" y="186.7" class="st8" width="23.8" height="0.7"/>
					</g>
					<g>
						<rect x="228.8" y="186.7" class="st8" width="23.8" height="0.7"/>
					</g>
					<g>
						<polygon class="st8" points="254.1,187.4 252.6,187.4 252.6,186.7 252.9,186.7 250.6,183.4 230.5,183.4 228.2,186.7 
							228.8,186.7 228.8,187.4 226.9,187.4 230.1,182.7 250.9,182.7 						"/>
					</g>
				</g>
			</g>
			<g>
				<g>
					<g>
						<rect x="199.2" y="171.8" class="st8" width="1.9" height="0.7"/>
					</g>
					<g>
						<polygon class="st8" points="209,169.5 208.4,169.5 208.4,168.9 199.4,168.9 199.4,169.5 198.8,169.5 198.8,168.2 209,168.2 
													"/>
					</g>
					<g>
						<rect x="207.4" y="171.8" class="st8" width="1.4" height="0.7"/>
					</g>
					<g>
						<polygon class="st8" points="212,182.7 211.3,182.7 211.3,170.2 208.7,170.2 208.7,169.5 212,169.5 						"/>
					</g>
					<g>
						<polygon class="st8" points="196.8,182.7 196.1,182.7 196.1,169.5 199.4,169.5 199.4,170.2 196.8,170.2 						"/>
					</g>
					<g>
						<rect x="199.4" y="169.5" class="st8" width="9.2" height="0.7"/>
					</g>
					<g>
						<rect x="196.5" y="182.4" class="st8" width="15.2" height="0.7"/>
					</g>
					<g>
						<polygon class="st8" points="213.6,214.1 193.8,214.1 193.8,182.4 196.5,182.4 196.5,183.1 194.5,183.1 194.5,213.4 
							213,213.4 213,183.1 211.7,183.1 211.7,182.4 213.6,182.4 						"/>
					</g>
					<g>
						<path class="st8" d="M206,181.7h-4v-4.6h4V181.7z M202.7,181.1h2.6v-3.3h-2.6V181.1z"/>
					</g>
					<g>
						<rect x="202.7" y="171.8" class="st8" width="2.9" height="0.7"/>
					</g>
					<g>
						<polygon class="st8" points="206,176.8 202.1,176.8 202.1,171.8 202.7,171.8 202.7,176.1 205.4,176.1 205.4,171.8 206,171.8 
													"/>
					</g>
					<g>
						<path class="st8" d="M210.3,181.7h-3.6v-4.6h3.6V181.7z M207.4,181.1h2.3v-3.3h-2.3V181.1z"/>
					</g>
					<g>
						<polygon class="st8" points="210.3,176.8 206.7,176.8 206.7,171.8 207.4,171.8 207.4,176.1 209.7,176.1 209.7,172.5 
							208.7,172.5 208.7,171.8 210.3,171.8 						"/>
					</g>
					<g>
						<rect x="207.5" y="171.8" class="st8" width="1.2" height="0.7"/>
					</g>
					<g>
						<path class="st8" d="M201.1,181.7h-3.6v-4.6h3.6V181.7z M198.1,181.1h2.3v-3.3h-2.3V181.1z"/>
					</g>
					<g>
						<polygon class="st8" points="201.1,176.8 197.5,176.8 197.5,171.8 199.4,171.8 199.4,172.5 198.1,172.5 198.1,176.1 
							200.4,176.1 200.4,171.8 201.1,171.8 						"/>
					</g>
					<g>
						<rect x="199.4" y="171.8" class="st8" width="1.5" height="0.7"/>
					</g>
					<g>
						<g>
							<g>
								<path class="st8" d="M199.8,211.8h-4v-4.3h4V211.8z M196.5,211.1h2.6v-3h-2.6V211.1z"/>
							</g>
						</g>
						<g>
							<g>
								<path class="st8" d="M199.8,207.2h-4v-4.3h4V207.2z M196.5,206.5h2.6v-3h-2.6V206.5z"/>
							</g>
						</g>
						<g>
							<g>
								<path class="st8" d="M199.8,202.5h-4v-4.3h4V202.5z M196.5,201.9h2.6v-3h-2.6V201.9z"/>
							</g>
						</g>
						<g>
							<g>
								<path class="st8" d="M199.8,197.6h-4v-4.3h4V197.6z M196.5,196.9h2.6v-3h-2.6V196.9z"/>
							</g>
						</g>
						<g>
							<g>
								<path class="st8" d="M199.8,193h-4v-4.3h4V193z M196.5,192.3h2.6v-3h-2.6V192.3z"/>
							</g>
						</g>
						<g>
							<g>
								<path class="st8" d="M199.8,188.3h-4v-4.3h4V188.3z M196.5,187.7h2.6v-3h-2.6V187.7z"/>
							</g>
						</g>
					</g>
					<g>
						<g>
							<g>
								<path class="st8" d="M205.7,211.8h-4v-4.3h4V211.8z M202.4,211.1h2.6v-3h-2.6V211.1z"/>
							</g>
						</g>
						<g>
							<g>
								<path class="st8" d="M205.7,207.2h-4v-4.3h4V207.2z M202.4,206.5h2.6v-3h-2.6V206.5z"/>
							</g>
						</g>
						<g>
							<g>
								<path class="st8" d="M205.7,202.5h-4v-4.3h4V202.5z M202.4,201.9h2.6v-3h-2.6V201.9z"/>
							</g>
						</g>
						<g>
							<g>
								<path class="st8" d="M205.7,197.6h-4v-4.3h4V197.6z M202.4,196.9h2.6v-3h-2.6V196.9z"/>
							</g>
						</g>
						<g>
							<g>
								<path class="st8" d="M205.7,193h-4v-4.3h4V193z M202.4,192.3h2.6v-3h-2.6V192.3z"/>
							</g>
						</g>
						<g>
							<g>
								<path class="st8" d="M205.7,188.3h-4v-4.3h4V188.3z M202.4,187.7h2.6v-3h-2.6V187.7z"/>
							</g>
						</g>
					</g>
					<g>
						<g>
							<g>
								<path class="st8" d="M211.7,211.8h-4v-4.3h4V211.8z M208.4,211.1h2.6v-3h-2.6V211.1z"/>
							</g>
						</g>
						<g>
							<g>
								<path class="st8" d="M211.7,207.2h-4v-4.3h4V207.2z M208.4,206.5h2.6v-3h-2.6V206.5z"/>
							</g>
						</g>
						<g>
							<g>
								<path class="st8" d="M211.7,202.5h-4v-4.3h4V202.5z M208.4,201.9h2.6v-3h-2.6V201.9z"/>
							</g>
						</g>
						<g>
							<g>
								<path class="st8" d="M211.7,197.6h-4v-4.3h4V197.6z M208.4,196.9h2.6v-3h-2.6V196.9z"/>
							</g>
						</g>
						<g>
							<g>
								<path class="st8" d="M211.7,193h-4v-4.3h4V193z M208.4,192.3h2.6v-3h-2.6V192.3z"/>
							</g>
						</g>
						<g>
							<g>
								<path class="st8" d="M211.7,188.3h-4v-4.3h4V188.3z M208.4,187.7h2.6v-3h-2.6V187.7z"/>
							</g>
						</g>
					</g>
				</g>
				<g>
					<rect x="203.4" y="161.1" class="st8" width="0.7" height="7.4"/>
				</g>
			</g>
			<g>
				<g>
					<rect x="352.5" y="167.9" class="st8" width="10.1" height="0.7"/>
				</g>
				<g>
					<polygon class="st8" points="348.9,170.4 348.2,170.4 348.2,167.9 352.5,167.9 352.5,168.5 348.9,168.5 					"/>
				</g>
				<g>
					<polygon class="st8" points="366.2,170.4 365.6,170.4 365.6,168.5 362.6,168.5 362.6,167.9 366.2,167.9 					"/>
				</g>
				<g>
					<polygon class="st8" points="368.8,214.1 345.3,214.1 345.3,170.4 348.9,170.4 348.9,171.1 346,171.1 346,213.4 368.1,213.4 
						368.1,171.1 365.6,171.1 365.6,170.4 368.8,170.4 					"/>
				</g>
				<g>
					<rect x="348.9" y="170.4" class="st8" width="17" height="0.7"/>
				</g>
				<g>
					<g>
						<g>
							<rect x="345.7" y="208.4" class="st8" width="23.1" height="0.7"/>
						</g>
					</g>
					<g>
						<g>
							<rect x="345.7" y="203" class="st8" width="23.1" height="0.7"/>
						</g>
					</g>
					<g>
						<g>
							<rect x="345.7" y="197.5" class="st8" width="23.1" height="0.7"/>
						</g>
					</g>
					<g>
						<g>
							<rect x="345.7" y="192.1" class="st8" width="23.1" height="0.7"/>
						</g>
					</g>
					<g>
						<g>
							<rect x="345.7" y="186.7" class="st8" width="23.1" height="0.7"/>
						</g>
					</g>
					<g>
						<g>
							<rect x="345.7" y="181.3" class="st8" width="23.1" height="0.7"/>
						</g>
					</g>
					<g>
						<g>
							<rect x="345.7" y="175.8" class="st8" width="23.1" height="0.7"/>
						</g>
					</g>
				</g>
				<g>
					<g>
						<g>
							<rect x="368.1" y="170.7" class="st8" width="0.7" height="43"/>
						</g>
					</g>
					<g>
						<g>
							<rect x="362.3" y="170.7" class="st8" width="0.7" height="43"/>
						</g>
					</g>
					<g>
						<g>
							<rect x="356.5" y="170.7" class="st8" width="0.7" height="43"/>
						</g>
					</g>
					<g>
						<g>
							<rect x="350.7" y="170.7" class="st8" width="0.7" height="43"/>
						</g>
					</g>
				</g>
			</g>
			<g>
				<g>
					<rect x="159.3" y="175.8" class="st8" width="10.1" height="0.7"/>
				</g>
				<g>
					<polygon class="st8" points="155.6,178 155,178 155,175.8 159.3,175.8 159.3,176.5 155.6,176.5 					"/>
				</g>
				<g>
					<polygon class="st8" points="173,178 172.3,178 172.3,176.5 169.4,176.5 169.4,175.8 173,175.8 					"/>
				</g>
				<g>
					<polygon class="st8" points="175.5,214.1 152.1,214.1 152.1,177.9 155.6,177.9 155.6,178.6 152.7,178.6 152.7,213.4 
						174.9,213.4 174.9,178.6 172.3,178.6 172.3,177.9 175.5,177.9 					"/>
				</g>
				<g>
					<rect x="155.7" y="177.9" class="st8" width="17" height="0.7"/>
				</g>
				<g>
					<g>
						<g>
							<rect x="152.4" y="209.3" class="st8" width="23.1" height="0.7"/>
						</g>
					</g>
					<g>
						<g>
							<rect x="152.4" y="204.8" class="st8" width="23.1" height="0.7"/>
						</g>
					</g>
					<g>
						<g>
							<rect x="152.4" y="200.3" class="st8" width="23.1" height="0.7"/>
						</g>
					</g>
					<g>
						<g>
							<rect x="152.4" y="195.8" class="st8" width="23.1" height="0.7"/>
						</g>
					</g>
					<g>
						<g>
							<rect x="152.4" y="191.4" class="st8" width="23.1" height="0.7"/>
						</g>
					</g>
					<g>
						<g>
							<rect x="152.4" y="186.9" class="st8" width="23.1" height="0.7"/>
						</g>
					</g>
					<g>
						<g>
							<rect x="152.4" y="182.4" class="st8" width="23.1" height="0.7"/>
						</g>
					</g>
				</g>
				<g>
					<g>
						<g>
							<rect x="174.9" y="178.3" class="st8" width="0.7" height="35.5"/>
						</g>
					</g>
					<g>
						<g>
							<rect x="169.1" y="178.3" class="st8" width="0.7" height="35.5"/>
						</g>
					</g>
					<g>
						<g>
							<rect x="163.3" y="178.3" class="st8" width="0.7" height="35.5"/>
						</g>
					</g>
					<g>
						<g>
							<rect x="157.5" y="178.3" class="st8" width="0.7" height="35.5"/>
						</g>
					</g>
				</g>
			</g>
			<g>
				<g>
					<rect x="219.8" y="203.9" class="st8" width="0.7" height="10.2"/>
				</g>
				<g>
					<path class="st8" d="M219.9,209.1c-2.9,0-5.3-2.4-5.3-5.3c0-2.9,2.4-5.3,5.3-5.3c2.9,0,5.3,2.4,5.3,5.3
						C225.2,206.7,222.8,209.1,219.9,209.1z M219.9,199.1c-2.5,0-4.6,2.1-4.6,4.7c0,2.6,2.1,4.7,4.6,4.7c2.5,0,4.6-2.1,4.6-4.7
						C224.5,201.2,222.5,199.1,219.9,199.1z"/>
				</g>
				<g>
					
						<rect x="218.7" y="205" transform="matrix(0.6044 -0.7967 0.7967 0.6044 -77.8524 256.1941)" class="st8" width="0.7" height="3"/>
				</g>
			</g>
			<g>
				<g>
					<path class="st8" d="M395.4,211.1h-17.8v-6.6h17.8V211.1z M378.2,210.5h16.5v-5.3h-16.5V210.5z"/>
				</g>
				<g>
					<rect x="376.3" y="210.5" class="st8" width="20.5" height="0.7"/>
				</g>
				<g>
					<rect x="377.3" y="210.8" class="st8" width="0.7" height="3.3"/>
				</g>
				<g>
					<rect x="395.4" y="210.8" class="st8" width="0.7" height="3.3"/>
				</g>
				<g>
					<rect x="377.9" y="206.5" class="st8" width="17.2" height="0.7"/>
				</g>
				<g>
					<rect x="377.9" y="208.5" class="st8" width="17.2" height="0.7"/>
				</g>
			</g>
			<g>
				<g>
					<path class="st8" d="M304.5,190.5h-29.6c-0.2,0-0.4-0.1-0.4-0.3c-0.1-0.2,0-0.4,0.1-0.5l15.1-11.5l15.1,11.5
						c0.2,0.1,0.2,0.3,0.1,0.5C304.9,190.4,304.7,190.5,304.5,190.5z M275.6,189.9h28.3L289.7,179L275.6,189.9z"/>
				</g>
				<g>
					<path class="st8" d="M288.1,210.1h-5.3v-3.2h0.9v-11.7h-0.9v-3.2h5.3v3.2h-0.9v11.7h0.9V210.1z M283.5,209.4h3.9v-1.9h-0.9v-13
						h0.9v-1.9h-3.9v1.9h0.9v13h-0.9V209.4z"/>
				</g>
				<g>
					<path class="st8" d="M296.4,210.1h-5v-3.2h0.9v-11.7h-0.9v-3.2h5v3.2h-0.9v11.7h0.9V210.1z M292.1,209.4h3.6v-1.9h-0.9v-13h0.9
						v-1.9h-3.6v1.9h0.9v13h-0.9V209.4z"/>
				</g>
				<g>
					<path class="st8" d="M304.5,210.1h-5v-3.2h0.9v-11.7h-0.9v-3.2h5v3.2h-0.9v11.7h0.9V210.1z M300.2,209.4h3.6v-1.9H303v-13h0.9
						v-1.9h-3.6v1.9h0.9v13h-0.9V209.4z"/>
				</g>
				<g>
					<path class="st8" d="M280.1,210.1h-5v-3.2h0.9v-11.7h-0.9v-3.2h5v3.2h-0.9v11.7h0.9V210.1z M275.8,209.4h3.6v-1.9h-0.9v-13h0.9
						v-1.9h-3.6v1.9h0.9v13h-0.9V209.4z"/>
				</g>
				<g>
					<g>
						<g>
							<path class="st8" d="M305.9,212.9h-32.2l0.6-3.5h30.9L305.9,212.9z M274.5,212.3h30.6l-0.4-2.2h-29.8L274.5,212.3z"/>
						</g>
						<g>
							<polygon class="st8" points="305.5,214.1 305,211.5 274.6,211.5 274.2,214.1 273.5,214 274.1,210.8 305.5,210.8 306.1,214 
															"/>
						</g>
					</g>
				</g>
				<g>
					<path class="st8" d="M304.5,192.5h-29.4v-2.7h29.4V192.5z M275.8,191.9h28.1v-1.4h-28.1V191.9z"/>
				</g>
			</g>
			<g>
				<g>
					<path class="st8" d="M321.5,214.1h-7.6v-2.6h0.7v-1h1.3l0.3-1l-0.7-7.2c-0.1-0.9,0.1-1.7,0.5-2.5l0.2-0.3v-0.8
						c0,0,0-0.1-0.1-0.1l-0.2-0.1c-0.2,0-0.5-0.2-0.5-0.5l-0.5-3c-0.1-0.5,0.2-1,0.7-1.1l1.3-0.3v-0.3c-0.3-0.4-0.5-0.9-0.5-1.4
						c0-0.8,0.5-1.3,1.3-1.3c0.8,0,1.3,0.5,1.3,1.3c0,0.5-0.2,1.1-0.5,1.4v0.3l1.3,0.3c0.5,0.1,0.8,0.6,0.8,1.1l-0.5,3
						c0,0.2-0.3,0.4-0.5,0.5l-0.3,0.1c-0.1,0-0.1,0.1-0.1,0.1l0,0.7l0.3,0.4c0.4,0.8,0.6,1.6,0.5,2.3l-0.6,7.2l0.3,1h1.2v1h0.7
						V214.1z M314.6,213.4h6.3v-1.3h-0.7v-1h-1l-0.6-2h0.1l0.6-7c0.1-0.6-0.1-1.3-0.5-2l-0.4-0.5v-0.9c0-0.3,0.3-0.6,0.6-0.7
						l0.3-0.1l0.5-2.9c0-0.1-0.1-0.3-0.3-0.3l-1.8-0.5v-1.1l0.1-0.1c0.2-0.2,0.4-0.7,0.4-1.1c0-0.5-0.2-0.6-0.7-0.6
						c-0.5,0-0.7,0.2-0.7,0.6c0,0.3,0.1,0.8,0.4,1.1l0.1,0.1v1.1l-1.8,0.5c-0.1,0-0.2,0.2-0.2,0.3l0.5,2.9l0.3,0.1
						c0.4,0.1,0.6,0.4,0.6,0.7v1l-0.3,0.5c-0.4,0.7-0.5,1.4-0.5,2.1l0.7,7.3l-0.5,1.6h-1.1v1h-0.7V213.4z"/>
				</g>
			</g>
			<g>
				<g>
					<g>
						<path class="st8" d="M182.7,202.6c-2.9,0-5.5-2.2-5.9-5.2c-0.2-1.6,0.2-3.2,1.1-4.4c1-1.3,2.4-2.1,3.9-2.3
							c1.6-0.2,3.2,0.2,4.4,1.1c1.3,1,2.1,2.4,2.3,3.9c0.1,0.6,0.1,1.2,0,1.8l-0.7-0.1c0.1-0.5,0.1-1.1,0-1.6
							c-0.2-1.4-0.9-2.7-2.1-3.5s-2.5-1.2-3.9-1c-1.4,0.2-2.7,0.9-3.5,2.1c-0.9,1.1-1.2,2.5-1,3.9c0.4,2.9,3.1,4.9,6,4.5
							c0.2,0,0.4-0.1,0.6-0.1l0.2,0.6c-0.2,0.1-0.4,0.1-0.7,0.1C183.2,202.6,182.9,202.6,182.7,202.6z"/>
					</g>
					<g>
						<path class="st8" d="M187.8,205.5c-2,0-3.7-1.4-4.1-3.3l0.6-0.1c0.4,1.8,2.1,3,3.9,2.8c0.9-0.1,1.7-0.6,2.3-1.4
							c0.6-0.7,0.8-1.7,0.7-2.6c-0.2-1.6-1.5-2.8-3.1-3l0.1-0.7c1.9,0.2,3.4,1.7,3.7,3.6c0.2,1.1-0.1,2.2-0.8,3.1
							c-0.7,0.9-1.6,1.5-2.7,1.6C188.2,205.5,188,205.5,187.8,205.5z"/>
					</g>
					<g>
						<path class="st8" d="M183.7,202.2L183.7,202.2c0-0.1,0-0.2,0-0.2c-0.2-1.1,0.1-2.2,0.8-3.1c0.7-0.9,1.6-1.5,2.7-1.6
							c0.3,0,0.7,0,1,0l-0.1,0.7c-0.3,0-0.6,0-0.9,0c-0.9,0.1-1.7,0.6-2.3,1.4c-0.6,0.7-0.8,1.7-0.7,2.6c0,0,0,0.1,0,0.1l0,0.1
							L183.7,202.2z"/>
					</g>
				</g>
				<g>
					
						<rect x="182.4" y="196.7" transform="matrix(1 -5.686798e-03 5.686798e-03 1 -1.165 1.0424)" class="st8" width="0.7" height="17.4"/>
				</g>
				<g>
					
						<rect x="182.1" y="203" transform="matrix(0.7965 -0.6046 0.6046 0.7965 -85.2113 153.3961)" class="st8" width="6.3" height="0.7"/>
				</g>
			</g>
			<g>
				<g>
					<g>
						<path class="st8" d="M81.5,190.9h-3.3l-6.4-6.4l-6.6,6.4h-3.1l9.7-9.6L81.5,190.9z M78.5,190.3h1.4l-8.1-8l-8.1,8H65l6.8-6.6
							L78.5,190.3z"/>
					</g>
					<g>
						<path class="st8" d="M84.7,204.8l-12.7-4.5l-12.7,4.1v-2.3l12.7-4.2l12.7,4.5V204.8z M71.9,199.6l12,4.3v-1l-12-4.3l-12.1,4v1
							L71.9,199.6z"/>
					</g>
					<g>
						<polygon class="st8" points="83.7,214.1 59.9,214.1 59.9,203.7 60.6,203.7 60.6,213.4 83,213.4 83,203.9 83.7,203.9 						"/>
					</g>
					<g>
						<g>
							<path class="st8" d="M69,199.3l-0.7,0l0-5.6c0,0,0-0.1,0-0.1c0-1.5,1.5-2.7,3.5-2.7c2,0,3.5,1.2,3.5,2.7c0,0,0,0.1,0,0.1
								l0,5.4l-0.7,0l0-5.6c-0.1-1-1.3-1.9-2.9-1.9c-1.5,0-2.8,0.8-2.9,1.9L69,199.3z"/>
						</g>
					</g>
					<g>
						<g>
							<rect x="78" y="190.4" class="st8" width="0.7" height="10.1"/>
						</g>
						<g>
							<rect x="64.8" y="190.4" class="st8" width="0.7" height="9.8"/>
						</g>
					</g>
					<g>
						<g>
							<path class="st8" d="M70.5,197.4c-0.1,0-0.3-0.1-0.4-0.2c-0.1-0.1-0.2-0.3-0.1-0.5c0.1-0.4,0.3-1.1,0.1-1.6
								c-0.3-0.9,0-2,0.7-2.5c0.1-0.1,0.3-0.2,0.5-0.3l0,0c0.2-0.1,0.5,0,0.7,0c0.9,0.2,1.5,1,1.6,2c0.1,0.6,0.5,1.2,0.7,1.5
								c0.1,0.1,0.2,0.3,0.1,0.5c-0.1,0.2-0.2,0.3-0.4,0.4l0,0c-0.8,0.2-2.7,0.6-3.5,0.7C70.5,197.4,70.5,197.4,70.5,197.4z
								 M71.6,192.9c0,0-0.1,0-0.1,0l0,0c-0.1,0-0.2,0.1-0.3,0.1c-0.4,0.3-0.7,1-0.5,1.8c0.2,0.6,0.1,1.4,0,1.8
								c0.8-0.2,2.3-0.5,3.1-0.7c-0.3-0.4-0.7-1-0.8-1.7c-0.1-0.8-0.6-1.3-1.1-1.4C71.8,193,71.7,192.9,71.6,192.9z"/>
						</g>
						<g>
							<g>
								<path class="st8" d="M71.1,197.8c-0.1,0-0.3,0-0.4-0.1c-0.2-0.1-0.3-0.3-0.3-0.4c0-0.1,0-0.2,0-0.3l0-0.2l1.1-0.2l0.1,0.2
									c0.1,0.1,0.1,0.2,0.1,0.2c0.1,0.4-0.2,0.7-0.6,0.8C71.2,197.8,71.2,197.8,71.1,197.8z"/>
							</g>
						</g>
					</g>
					<g>
						<path class="st8" d="M75.5,213.8h-0.7v-7.5c0-1.1-1.3-2.1-2.9-2.1c-1.6,0-2.9,1-2.9,2.1c0,0,0,7.4,0,7.4l-0.7,0
							c0,0,0-7.3,0-7.4c0-1.5,1.6-2.7,3.5-2.7c1.9,0,3.5,1.2,3.5,2.7V213.8z"/>
					</g>
					<g>
						<rect x="71.8" y="203.9" class="st8" width="0.7" height="9.6"/>
					</g>
					<g>
						<g>
							<path class="st8" d="M81.7,210.5h-4.3v-4.6h4.3V210.5z M78,209.8h3v-3.3h-3V209.8z"/>
						</g>
					</g>
					<g>
						<g>
							<path class="st8" d="M66.5,210.5h-4v-4.6h4V210.5z M63.2,209.8h2.6v-3.3h-2.6V209.8z"/>
						</g>
					</g>
				</g>
				<g>
					<rect x="71.4" y="176.1" class="st8" width="0.7" height="5.9"/>
				</g>
				<g>
					<rect x="69.8" y="178.4" class="st8" width="4.3" height="0.7"/>
				</g>
			</g>
			<g>
				<g>
					<rect x="39.8" y="210.3" class="st8" width="0.7" height="3.6"/>
				</g>
				<g>
					<g>
						<rect x="12.1" y="199.6" class="st8" width="0.7" height="14.5"/>
					</g>
					<g>
						
							<rect x="10.6" y="201.2" transform="matrix(0.6044 -0.7967 0.7967 0.6044 -157.6356 89.1798)" class="st8" width="0.7" height="4.2"/>
					</g>
					<g>
						<rect x="48.1" y="202.9" class="st8" width="0.7" height="11.2"/>
					</g>
					<g>
						
							<rect x="47.1" y="204.3" transform="matrix(0.6044 -0.7967 0.7967 0.6044 -145.2421 119.1927)" class="st8" width="0.7" height="3.2"/>
					</g>
					<g>
						<rect x="20.4" y="203.5" class="st8" width="0.7" height="10.6"/>
					</g>
					<g>
						
							<rect x="20.5" y="205.9" transform="matrix(0.7967 -0.6044 0.6044 0.7967 -120.1934 55.2189)" class="st8" width="3" height="0.7"/>
					</g>
					<g>
						<g>
							<path class="st8" d="M12.2,206.8c-4,0-7.2-3.3-7.2-7.3c0-4,3.2-7.3,7.2-7.3c2.2,0,4.2,1,5.6,2.6l-0.5,0.4
								c-1.3-1.5-3.1-2.4-5.1-2.4c-3.6,0-6.6,3-6.6,6.6c0,3.6,2.9,6.6,6.6,6.6c1.6,0,3.2-0.6,4.4-1.7l0.4,0.5
								C15.7,206.1,14,206.8,12.2,206.8z"/>
						</g>
						<g>
							<path class="st8" d="M16.5,204.8c-0.5-1.3-0.7-2.7-0.7-4.2c0-2.1,0.5-4.1,1.4-5.6l0.6,0.3c-0.9,1.4-1.3,3.3-1.3,5.3
								c0,1.4,0.2,2.8,0.7,3.9L16.5,204.8z"/>
						</g>
						<g>
							<path class="st8" d="M17.8,195.3l-0.6-0.3c1-1.7,2.4-2.6,3.9-2.6c0.3,0,0.5,0,0.8,0.1l-0.2,0.6
								C20.3,192.7,18.8,193.5,17.8,195.3z"/>
						</g>
						<g>
							<path class="st8" d="M25.7,199.6c-0.3-3.4-1.9-6.1-4-6.5l0.2-0.6c2.3,0.6,4.2,3.5,4.5,7.1L25.7,199.6z"/>
						</g>
						<g>
							<path class="st8" d="M21.1,208.9c-1.9,0-3.6-1.5-4.6-4.1l0.6-0.2c0.8,2.3,2.4,3.7,4,3.7c2.6,0,4.7-3.4,4.7-7.6
								c0-0.3,0-0.7,0-1l0.7-0.1c0,0.4,0,0.7,0,1.1C26.4,205.2,24,208.9,21.1,208.9z"/>
						</g>
						<g>
							<path class="st8" d="M28.5,200.4c-0.9,0-1.8-0.2-2.6-0.5l0.2-0.6c1,0.4,2.1,0.5,3.2,0.4c0.2,0,0.5-0.1,0.7-0.1l0.2,0.6
								c-0.3,0.1-0.5,0.1-0.8,0.2C29.2,200.3,28.9,200.4,28.5,200.4z"/>
						</g>
						<g>
							<path class="st8" d="M35.5,194.4l-0.7-0.1c0.1-0.6,0.1-1.3,0-1.9c-0.2-1.7-1.1-3.2-2.5-4.2c-1.4-1-3-1.5-4.7-1.2
								c-3,0.4-5.2,2.8-5.5,5.7l-0.7-0.1c0.3-3.3,2.8-5.9,6-6.3c1.9-0.3,3.7,0.2,5.2,1.4c1.5,1.1,2.5,2.8,2.7,4.6
								C35.6,193,35.6,193.8,35.5,194.4z"/>
						</g>
					</g>
					<g>
						<g>
							<polygon class="st8" points="42.7,200 40.1,191.5 38.6,196.3 38,196.1 40.1,189.3 43.4,199.8 							"/>
						</g>
						<g>
							<polygon class="st8" points="46.8,210.8 33.3,210.8 35.7,203.2 36.3,203.4 34.2,210.1 45.9,210.1 44.9,206.7 45.5,206.5 
															"/>
						</g>
						<g>
							<path class="st8" d="M48.3,208.6c-1.2,0-2.4-0.6-3.4-1.8l0.5-0.4c0.8,1,1.8,1.5,2.9,1.5c2.7,0,4.9-3.6,4.9-8.1
								c0-4.4-2.2-8.1-4.9-8.1c-2.7,0-4.9,3.6-4.9,8.1v0h-0.7v0c0-4.9,2.4-8.7,5.5-8.7c3.1,0,5.5,3.8,5.5,8.7
								C53.9,204.7,51.4,208.6,48.3,208.6z"/>
						</g>
						<g>
							<path class="st8" d="M44.9,206.8c-1.4-1.7-2.2-4.2-2.2-6.9h0.7c0,2.6,0.8,5,2,6.5L44.9,206.8z"/>
						</g>
						<g>
							<path class="st8" d="M38,196.4c-0.7-0.9-1.8-1.5-2.9-1.6l0.1-0.7c1.3,0.1,2.5,0.8,3.3,1.9L38,196.4z"/>
						</g>
						<g>
							<path class="st8" d="M34.6,203.8c-2.3,0-4.3-1.6-4.8-3.9l0.6-0.1c0.4,2.2,2.5,3.7,4.7,3.4c0.2,0,0.5-0.1,0.7-0.2l0.2,0.6
								c-0.3,0.1-0.6,0.2-0.8,0.2C35.1,203.8,34.9,203.8,34.6,203.8z"/>
						</g>
						<g>
							<path class="st8" d="M36.1,203.6l-0.2-0.6c2-0.6,3.2-2.6,2.9-4.6c-0.1-0.7-0.4-1.4-0.8-2l0.5-0.4c0.5,0.7,0.8,1.5,1,2.3
								C39.8,200.6,38.4,202.8,36.1,203.6z"/>
						</g>
					</g>
					<g>
						<path class="st8" d="M29.9,199.9L29.9,199.9c0-0.1,0-0.2-0.1-0.3c-0.4-2.7,1.5-5.1,4.2-5.5c0.4-0.1,0.8-0.1,1.2,0l-0.1,0.7
							c-0.4,0-0.7,0-1,0c-1.1,0.2-2.1,0.7-2.8,1.6c-0.7,0.9-1,2-0.8,3.1c0,0.1,0,0.1,0,0.2l0,0.1L29.9,199.9z"/>
					</g>
					<g>
						
							<rect x="28.3" y="193.3" transform="matrix(1 -5.679409e-03 5.679409e-03 1 -1.1563 0.1656)" class="st8" width="0.7" height="20.7"/>
					</g>
					<g>
						
							<rect x="27.9" y="200.9" transform="matrix(0.7965 -0.6046 0.6046 0.7965 -115.2072 60.0697)" class="st8" width="7.5" height="0.7"/>
					</g>
				</g>
			</g>
			<g>
				<g>
					<path class="st8" d="M112.3,211.1H94.5v-6.6h17.8V211.1z M95.2,210.5h16.5v-5.3H95.2V210.5z"/>
				</g>
				<g>
					<rect x="93.2" y="210.5" class="st8" width="20.5" height="0.7"/>
				</g>
				<g>
					<rect x="94.2" y="210.8" class="st8" width="0.7" height="3.3"/>
				</g>
				<g>
					<rect x="112.3" y="210.8" class="st8" width="0.7" height="3.3"/>
				</g>
				<g>
					<rect x="94.8" y="206.5" class="st8" width="17.2" height="0.7"/>
				</g>
				<g>
					<rect x="94.8" y="208.5" class="st8" width="17.2" height="0.7"/>
				</g>
			</g>
			<g>
				<g>
					<path class="st8" d="M127.9,210.2l-0.6-0.2l3-7.7c0.2-0.6,0.8-0.9,1.4-0.9h1.7v0.7h-1.7c-0.3,0-0.6,0.2-0.8,0.5L127.9,210.2z"
						/>
				</g>
				<g>
					<path class="st8" d="M127.6,214.1c-2.4,0-4.4-2-4.4-4.4c0-2.4,2-4.4,4.4-4.4c2.4,0,4.4,2,4.4,4.4
						C132,212.1,130,214.1,127.6,214.1z M127.6,205.9c-2.1,0-3.8,1.7-3.8,3.8c0,2.1,1.7,3.8,3.8,3.8c2.1,0,3.8-1.7,3.8-3.8
						C131.3,207.6,129.6,205.9,127.6,205.9z"/>
				</g>
				<g>
					<path class="st8" d="M141.9,214.1c-2.4,0-4.4-2-4.4-4.4c0-2.4,2-4.4,4.4-4.4c2.4,0,4.4,2,4.4,4.4
						C146.3,212.1,144.3,214.1,141.9,214.1z M141.9,205.9c-2.1,0-3.8,1.7-3.8,3.8c0,2.1,1.7,3.8,3.8,3.8c2.1,0,3.8-1.7,3.8-3.8
						C145.6,207.6,144,205.9,141.9,205.9z"/>
				</g>
				<g>
					<path class="st8" d="M142.4,210.4h-7.1l-6.1-6.8h10L142.4,210.4z M135.6,209.7h5.8l-2.6-5.5h-8.1L135.6,209.7z"/>
				</g>
				<g>
					
						<rect x="133.1" y="205.8" transform="matrix(0.4908 -0.8713 0.8713 0.4908 -109.4426 224.9065)" class="st8" width="9.1" height="0.7"/>
				</g>
				<g>
					<rect x="138.1" y="201.8" class="st8" width="2.7" height="0.7"/>
				</g>
			</g>
		</g>
	</g>
	<g>
		<path class="st8" d="M400,213.8c-0.1,0-0.1,0-0.2,0L0,214.1l0-0.7l399.8-0.3c0.1,0,0.1,0,0.2,0"/>
	</g>
</g>
</svg>
