<?xml version="1.0" encoding="utf-8"?>
<!-- Generator: Adobe Illustrator 22.0.0, SVG Export Plug-In . SVG Version: 6.00 Build 0)  -->
<svg version="1.1" id="Layer_1" xmlns="http://www.w3.org/2000/svg" xmlns:xlink="http://www.w3.org/1999/xlink" x="0px" y="0px"
	 viewBox="0 0 874 568.3" style="enable-background:new 0 0 874 568.3;" xml:space="preserve">
<style type="text/css">
	.st0{opacity:0.45;}
	.st1{fill:none;stroke:#CCCCCC;stroke-width:2;stroke-linecap:round;stroke-linejoin:round;}
	.st2{fill:#FFFFFF;stroke:#CCCCCC;stroke-width:2;stroke-linecap:round;stroke-linejoin:round;}
	.st3{fill:#FFFFFF;}
	.st4{fill:#E2E2E2;}
	.st5{fill:none;stroke:#CCCCCC;stroke-width:2;stroke-linejoin:round;}
	.st6{opacity:0.36;fill:#FFFFFF;enable-background:new    ;}
	.st7{fill:#56BC63;}
	.st8{fill:#41A34A;}
	.st9{fill:#2B384C;}
	.st10{fill:#454545;}
	.st11{fill:#F2EDEE;}
</style>
<g>
	<g class="st0">
		<g>
			<line class="st1" x1="85" y1="459.9" x2="603.5" y2="459.9"/>
			<g>
				<g>
					<line class="st1" x1="105.5" y1="208.3" x2="583" y2="250.1"/>
					<line class="st1" x1="230.3" y1="103.6" x2="478.3" y2="125.3"/>
					<line class="st1" x1="147.1" y1="173.4" x2="548.1" y2="208.5"/>
					<line class="st1" x1="188.7" y1="138.5" x2="513.2" y2="166.9"/>
				</g>
				<polygon class="st1" points="478.3,125.3 230.3,103.6 105.5,208.3 583,250.1 				"/>
			</g>
			<polygon class="st2" points="132.2,229.4 113.8,459.9 248.2,459.9 440.3,459.9 574.7,459.9 556.3,266.3 573.8,249.4 401.7,234.3 
				349.3,171.9 286.9,224.3 114.7,209.2 			"/>
			<rect x="214.6" y="315.8" class="st1" width="28.8" height="57.6"/>
			<rect x="445.1" y="315.8" class="st2" width="28.8" height="57.6"/>
			<rect x="315.5" y="315.8" class="st2" width="57.6" height="144"/>
			
				<rect x="335.1" y="-1" transform="matrix(8.715512e-02 -0.9962 0.9962 8.715512e-02 67.3196 569.3104)" class="st3" width="18.4" height="497.8"/>
			<g>
				<polygon class="st4" points="287.8,440.3 139.9,440.3 141.5,421.9 287.8,421.9 				"/>
			</g>
			<g>
				
					<rect x="275.3" y="392.3" transform="matrix(0.9701 -0.2425 0.2425 0.9701 -89.3419 95.6582)" class="st3" width="137.2" height="36.9"/>
			</g>
			<path class="st4" d="M489.2,421.9h-88.5v18.4h88.5C485.9,434.6,485.9,427.5,489.2,421.9z"/>
			<g>
				
					<rect x="325.8" y="282.8" transform="matrix(0.1641 -0.9864 0.9864 0.1641 -61.3803 635.3769)" class="st3" width="36.9" height="142.3"/>
			</g>
			<line class="st5" x1="286.3" y1="425.1" x2="401.5" y2="396.3"/>
			<line class="st5" x1="283.2" y1="343.7" x2="405.4" y2="364.1"/>
			<g>
				<line class="st1" x1="127.6" y1="287.1" x2="142.6" y2="287.1"/>
				<line class="st1" x1="142.6" y1="287.1" x2="183.4" y2="327.8"/>
				<line class="st1" x1="183.4" y1="287.1" x2="163" y2="307.4"/>
			</g>
			<g>
				<line class="st5" x1="572" y1="431.1" x2="545.9" y2="431.1"/>
				<line class="st5" x1="545.9" y1="431.1" x2="505.1" y2="390.3"/>
				<line class="st5" x1="505.1" y1="431.1" x2="525.5" y2="410.7"/>
			</g>
			<polygon class="st1" points="401.5,51.5 401.5,82.7 370.4,82.7 370.4,115.8 432.6,121.3 432.6,51.5 			"/>
			<g>
				
					<rect x="187.7" y="326.2" transform="matrix(0.8969 -0.4423 0.4423 0.8969 -128.8211 136.8457)" class="st3" width="82.7" height="36.9"/>
			</g>
			<g>
				
					<rect x="418.2" y="326.2" transform="matrix(0.8969 -0.4423 0.4423 0.8969 -105.0443 238.7943)" class="st3" width="82.7" height="36.9"/>
			</g>
			<g>
				<line class="st1" x1="200.2" y1="358.9" x2="257.8" y2="330.5"/>
			</g>
			<g>
				<line class="st1" x1="430.7" y1="358.9" x2="488.3" y2="330.5"/>
			</g>
			<g>
				<line class="st1" x1="688.8" y1="459.9" x2="696.3" y2="320.8"/>
				<line class="st1" x1="696.3" y1="367.2" x2="787.8" y2="275.7"/>
				<line class="st1" x1="688.8" y1="232.7" x2="696.3" y2="320.8"/>
				<line class="st1" x1="696.3" y1="320.8" x2="753.3" y2="263.8"/>
				<line class="st1" x1="696.3" y1="413.5" x2="753.3" y2="356.5"/>
				<line class="st1" x1="742.6" y1="320.8" x2="789" y2="320.8"/>
				<line class="st1" x1="731" y1="286" x2="731" y2="244.7"/>
				<line class="st1" x1="696.3" y1="367.2" x2="626.7" y2="297.6"/>
				<line class="st1" x1="696.3" y1="320.8" x2="626.7" y2="251.2"/>
				<line class="st1" x1="696.3" y1="413.5" x2="627.9" y2="345.1"/>
				<line class="st1" x1="649.9" y1="320.8" x2="603.5" y2="320.8"/>
				<line class="st1" x1="650.5" y1="367.8" x2="633.3" y2="385"/>
				<line class="st1" x1="661.5" y1="286" x2="661.5" y2="254.9"/>
				<line class="st1" x1="724.8" y1="385" x2="765.8" y2="385"/>
			</g>
			<line class="st1" x1="747.2" y1="459.9" x2="632.3" y2="459.9"/>
			<g>
				<g>
					<path class="st1" d="M655.7,32c31.8,0,57.6,25.8,57.6,57.6"/>
					<path class="st1" d="M713.3,89.6c0-31.8,25.8-57.6,57.6-57.6"/>
				</g>
				<g>
					<path class="st1" d="M605.6,75.2c15.9,0,28.8,12.9,28.8,28.8"/>
					<path class="st1" d="M634.4,104c0-15.9,12.9-28.8,28.8-28.8"/>
				</g>
			</g>
		</g>
	</g>
	<g>
		<circle class="st3" cx="386.7" cy="254.6" r="102.9"/>
		<path class="st6" d="M488.2,237.5c-7.2-43.1-41.2-77.2-84.4-84.4L488.2,237.5z"/>
		<path class="st3" d="M458.3,271c-37.1-37.1-74.2-74.2-111.3-111.3c-5.3,2.2-10.4,4.9-15.2,7.9c5.1,5.1,10.2,10.1,15.2,15.2
			c42.3,42.2,84.6,84.3,126.7,126.6c3-4.8,5.6-9.8,7.8-15.1L458.3,271z"/>
		<path class="st3" d="M313.4,282.9c24.9,24.9,49.7,49.7,74.6,74.6c20-0.2,38.6-6.2,54.3-16.3c-3.6-3.6-7.1-7.1-10.7-10.7
			c-43.8-43.9-87.7-87.6-131.6-131.4c-10.1,15.7-16,34.3-16.2,54.2L313.4,282.9z"/>
		<g>
			<path class="st7" d="M483.4,354.5c16.2,15,33.4,33.6,48.6,50.1c14.7,15.9,27.3,29.6,36.3,37.2c11.2,9.5,28.1,8,37.6-3.2
				c4.6-5.4,6.8-12.4,6.2-19.4c-0.6-7.1-3.9-13.5-9.4-18.1c-8.2-6.9-23.1-16.7-40.4-28c-23.2-15.3-50-32.9-69.8-49.4
				c-1.6,2.5-3.3,4.9-5.1,7.2c-0.6,0.8-1.2,1.3-2,0.7s-0.9-1.7-0.3-2.5c18.4-24.1,27.9-59.3,24.8-88.8c-3.5-32-18.9-61-43.5-81.7
				c-25.4-21.4-57.6-31.6-90.6-28.7c-33.1,2.8-63,18.4-84.4,43.8c-44.1,52.4-37.4,130.9,15,175.1c23.2,19.5,52.6,29.9,82.8,29.2
				c30-0.7,58.6-12.1,80.7-32.2c0.7-0.7,1.9-0.6,2.6,0.1c0.3,0.3,0.4,0.7,0.5,1.1c2.6,2.5,5.3,5.1,8.1,7.8l0.1-0.1
				C481.5,353.9,482.6,353.8,483.4,354.5z M486.7,232c1-0.2,1.9,0.4,2.1,1.4c1.3,6.6,1.9,13.4,2,20.1c0,1-0.8,1.8-1.8,1.8l0,0
				c-1,0-1.8-0.8-1.8-1.8c0-6.5-0.6-13-1.9-19.4C485.1,233.2,485.7,232.2,486.7,232z M463.3,318.6c-35.9,42.6-99.5,48.1-142.2,12.2
				c-42.6-35.9-48.1-99.5-12.2-142.2c35.9-42.6,99.5-48.1,142.2-12.2S499.2,275.9,463.3,318.6z M395.1,357.8c-3,0.3-6.1,0.4-9.1,0.4
				c-24.6,0-48.2-8.6-67.2-24.6c-44.1-37.2-49.8-103.3-12.6-147.4s103.3-49.8,147.4-12.6c12.5,10.5,22.1,23.4,28.6,38.3
				c0.4,0.9,0,2-0.9,2.4s-2,0-2.4-0.9c-6.2-14.4-15.5-26.8-27.6-36.9c-42.6-35.9-106.4-30.4-142.3,12.2
				c-36,42.4-30.5,106.3,12.1,142.1c20.6,17.4,46.8,25.7,73.7,23.4c26.9-2.3,51.3-14.9,68.6-35.6c8.3-9.9,14.6-21.1,18.6-33.2
				c0.3-0.9,1.3-1.5,2.3-1.1c0.9,0.3,1.5,1.3,1.1,2.3c-4.2,12.6-10.7,24.2-19.3,34.4C448.2,342.3,422.9,355.4,395.1,357.8z"/>
			<path class="st8" d="M612,419.1c-0.6-7.1-3.9-13.5-9.4-18.1c-8.2-6.9-23.1-16.7-40.4-28c-23.2-15.3-49.5-32.5-69.3-49
				c-0.7,1.1-1.8,2.4-2.6,3.4c3.3,0.9,85.5,60.5,104,73c16.8,11.4,10,30.4,1.8,38.4c-9.4,9.3-27.9,3.1-27.9,3.1
				c11.2,9.5,28.1,8,37.6-3.2C610.4,433.1,612.6,426.2,612,419.1z"/>
			<path class="st8" d="M509.6,240.2c-3.5-32-18.9-61-43.5-81.7c-25.4-21.4-57.6-31.6-90.6-28.7c-21.1,1.8-40.9,8.8-58,20.1
				c3.2-1.5,6.6-2.8,10.1-3.9c11.9-5.4,35.7-14.2,52.5-13.6c47.8-0.6,82.9,28.1,90.3,37.5c15,15.2,34.6,48.7,33,87.1
				c0.6,16.7-8.5,59.5-45,92.2c-26.9,19.2-57.5,27.3-68.5,28.6c29.4-0.9,57.4-12.1,79.2-31.6c4.8-3.8,11.5-10.3,15.5-16.3
				c0-0.3,0.1-0.6,0.4-0.9C504.3,303.6,513.1,272.1,509.6,240.2z"/>
			<path class="st9" d="M487.1,253.6c0,1,0.8,1.8,1.8,1.8l0,0c1,0,1.8-0.8,1.8-1.8c0-6.7-0.7-13.5-2-20.1c-0.2-1-1.1-1.6-2.1-1.4
				c-1,0.2-1.6,1.1-1.4,2.1C486.5,240.5,487.1,247.1,487.1,253.6z"/>
			<path class="st10" d="M484.3,284.3c-0.9-0.3-2,0.2-2.3,1.1c-4,12.2-10.3,23.3-18.6,33.2c-17.4,20.6-41.8,33.3-68.6,35.6
				c-26.9,2.3-53.1-6-73.7-23.4c-42.6-35.9-48.1-99.7-12.2-142.3s99.7-48.1,142.3-12.2c12.1,10.2,21.3,22.6,27.6,36.9
				c0.4,0.9,1.5,1.3,2.4,0.9c0.9-0.4,1.3-1.5,0.9-2.4c-6.5-14.9-16.1-27.8-28.6-38.3c-44.1-37.2-110.3-31.5-147.4,12.6
				c-37.2,44.1-31.5,110.3,12.6,147.4c19,16,42.6,24.6,67.2,24.6c3,0,6.1-0.1,9.1-0.4c27.8-2.4,53.1-15.5,71.1-36.9
				c8.6-10.2,15.1-21.8,19.3-34.4C485.8,285.6,485.3,284.6,484.3,284.3z"/>
			<path class="st10" d="M615.6,418.8c-0.7-8.1-4.5-15.4-10.7-20.6c-8.3-7-23.4-16.9-40.8-28.3c-23.3-15.3-49.7-32.6-69.3-49.1
				c15-24.1,21.5-52.5,18.4-81.1c-3.6-32.9-19.5-62.7-44.8-84c-26.1-22-59.3-32.5-93.3-29.6s-64.9,18.9-86.9,45
				s-32.5,59.3-29.6,93.3s18.9,64.9,45,86.9c23.1,19.4,52.2,30.1,82.3,30.1c1,0,1.9,0,2.9,0c30.8-0.7,60.3-12.5,83-33.1
				c0.4-0.4,0.6-0.9,0.6-1.4c0-0.4-0.2-0.8-0.5-1.1c-0.7-0.7-1.8-0.8-2.6-0.1c-22.1,20.1-50.7,31.5-80.7,32.2
				c-30.2,0.7-59.6-9.7-82.8-29.2c-52.4-44.1-59.1-122.7-15-175.1c21.4-25.4,51.4-40.9,84.4-43.8c33.1-2.8,65.3,7.4,90.6,28.7
				c24.6,20.7,40,49.7,43.5,81.7c3.4,31.8-5.4,63.4-24.8,88.8c-0.6,0.8-0.5,1.9,0.3,2.5s1.9,0.5,2.5-0.3c1.8-2.4,3.5-4.8,5.1-7.2
				c19.8,16.5,46.1,33.8,69.3,49c17.3,11.4,32.3,21.2,40.4,28c5.4,4.6,8.8,11,9.4,18.1c0.6,7.1-1.6,14-6.2,19.4
				c-9.5,11.2-26.3,12.7-37.6,3.2c-9-7.6-21.7-21.3-36.3-37.2c-15.2-16.5-32.4-35.1-48.6-50.1c-0.7-0.7-1.9-0.6-2.6,0.1l-0.1,0.1
				c-0.6,0.7-0.5,1.8,0.2,2.4c16.1,14.9,33.3,33.5,48.4,49.9c14.7,16,27.5,29.8,36.7,37.5c5.7,4.8,12.6,7.1,19.5,7.1
				c8.6,0,17.2-3.7,23.2-10.8C613.8,434.7,616.3,426.9,615.6,418.8z"/>
			<path class="st10" d="M448,199.2c-7.9-5.8-17.9-12.2-23.6-15.3l-1.3,2.5c4.2,2,16.6,7.9,24.4,13.5L448,199.2z"/>
			<path class="st10" d="M341.3,189.5c-5.5,3.3-15.2,10.2-22.8,16.4l0.6,0.7c7.4-6,19.6-12.5,23.7-14.7L341.3,189.5z"/>
			<path class="st10" d="M397.5,320.9l0.9-2.5c-0.1-0.1-6.6-4.5-13.9-4.9c-5.7-0.3-11.8,1.7-15.8,10.1l1.8,1.6
				C378.7,308.3,397.3,320.8,397.5,320.9z"/>
			<path class="st3" d="M343.2,222.3c-14.5,0.3-26,12.4-25.6,26.9c0.3,14.5,12.4,26,26.9,25.6c14.5-0.3,26-12.4,25.6-26.9
				S357.6,221.9,343.2,222.3z M344.4,269.3c-11.2,0.3-20.5-8.6-20.8-19.8c-0.3-11.2,8.6-20.5,19.8-20.8c11.2-0.3,20.5,8.6,20.8,19.8
				C364.5,259.7,355.6,269,344.4,269.3z"/>
			<path class="st3" d="M422.6,218.5c-15.5,0.4-27.8,13.2-27.4,28.8c0.4,15.5,13.2,27.8,28.8,27.4c15.5-0.4,27.8-13.2,27.4-28.8
				C451,230.4,438.1,218.2,422.6,218.5z M424,268.7c-12,0.3-21.9-9.2-22.2-21.2c-0.3-12,9.2-22,21.2-22.2c12-0.3,22,9.2,22.2,21.2
				C445.5,258.5,436,268.4,424,268.7z"/>
			<path class="st10" d="M423,225.3c-12,0.3-21.5,10.2-21.2,22.2S412,269,424,268.7c12-0.3,21.5-10.2,21.2-22.2
				C444.9,234.5,435,225,423,225.3z"/>
			<path class="st10" d="M343.4,228.7c-11.2,0.3-20.1,9.6-19.8,20.8c0.3,11.2,9.6,20.1,20.8,19.8c11.2-0.3,20.1-9.6,19.8-20.8
				C363.9,237.3,354.6,228.5,343.4,228.7z"/>
			<path class="st11" d="M335.5,282.7c-9.6,0.2-17.2,4-17.1,8.5s7.9,7.9,17.5,7.7c9.6-0.2,17.2-4,17.1-8.5
				C352.9,285.9,345.1,282.4,335.5,282.7z"/>
			<path class="st11" d="M427.6,280.5c-9.6,0.2-17.2,4-17.1,8.5s7.9,7.9,17.5,7.7c9.6-0.2,17.2-4,17.1-8.5S437.2,280.2,427.6,280.5z
				"/>
		</g>
	</g>
	<g>
		<path class="st7" d="M309,502.9h4.1l10.6,16.6v-16.6h5v25.2h-4.1l-10.5-16.6v16.6H309V502.9z"/>
		<path class="st7" d="M335.5,527.4c-1.2-0.6-2.1-1.5-2.6-2.9c-0.6-1.3-0.8-3.2-0.8-5.6c0-2.5,0.3-4.4,0.8-5.7
			c0.6-1.3,1.4-2.3,2.6-2.8s2.8-0.8,4.9-0.8s3.7,0.3,4.9,0.8c1.2,0.6,2.1,1.5,2.6,2.9c0.5,1.4,0.8,3.2,0.8,5.7
			c0,2.4-0.3,4.3-0.8,5.7c-0.5,1.4-1.4,2.3-2.6,2.9c-1.2,0.6-2.9,0.8-5,0.8C338.3,528.3,336.7,528,335.5,527.4z M342.4,523.9
			c0.5-0.2,0.8-0.7,1-1.5c0.2-0.8,0.3-1.9,0.3-3.5c0-1.6-0.1-2.7-0.3-3.5c-0.2-0.8-0.6-1.3-1-1.5c-0.4-0.2-1.1-0.4-2-0.4
			s-1.5,0.1-2,0.4c-0.5,0.2-0.8,0.7-1,1.5c-0.2,0.8-0.3,1.9-0.3,3.5c0,1.6,0.1,2.7,0.3,3.5c0.2,0.8,0.6,1.3,1,1.5
			c0.5,0.2,1.1,0.4,2,0.4S342,524.2,342.4,523.9z"/>
		<path class="st7" d="M361.2,502.9h10.4c2.2,0,4,0.6,5.3,1.8c1.3,1.2,1.9,3.3,1.9,6.3c0,2.1-0.4,3.7-1.1,4.7s-1.7,1.8-2.9,2.3
			l4.7,10.1h-5.1l-4.1-9.3c-1.1,0-2.5,0-4.1-0.1v9.4h-5L361.2,502.9L361.2,502.9z M370.7,514.8c1,0,1.7-0.3,2.2-0.8
			c0.5-0.6,0.8-1.5,0.8-2.9c0-1.3-0.3-2.3-0.8-2.8s-1.3-0.8-2.2-0.8h-4.5v7.3L370.7,514.8L370.7,514.8z"/>
		<path class="st7" d="M384.8,527.5c-1.2-0.5-2-1.5-2.6-2.8c-0.5-1.3-0.8-3.2-0.8-5.7s0.2-4.4,0.7-5.8c0.5-1.4,1.3-2.3,2.5-2.8
			c1.1-0.5,2.8-0.8,4.9-0.8c1.9,0,3.3,0.2,4.4,0.5c1.1,0.4,1.8,1,2.3,1.9c0.5,0.9,0.7,2.2,0.7,3.8c0,1.8-0.5,3-1.5,3.8
			c-1,0.7-2.5,1.1-4.4,1.1h-4.6c0,1,0.2,1.7,0.4,2.3c0.2,0.5,0.7,0.9,1.3,1.2c0.6,0.2,1.6,0.4,2.8,0.4h5.3v3
			c-1.2,0.3-2.3,0.4-3.3,0.6c-1,0.1-2.1,0.2-3.4,0.2C387.6,528.3,385.9,528,384.8,527.5z M390.5,517.8c0.7,0,1.2-0.1,1.5-0.4
			c0.3-0.3,0.5-0.8,0.5-1.4c0-1-0.2-1.7-0.7-2.1c-0.5-0.4-1.2-0.6-2.3-0.6c-0.8,0-1.4,0.1-1.9,0.4c-0.4,0.3-0.8,0.7-1,1.4
			c-0.2,0.7-0.3,1.6-0.3,2.8L390.5,517.8L390.5,517.8z"/>
		<path class="st7" d="M402.9,528.1c-1.4-0.1-2.4-0.3-3.1-0.6v-3h8.1c0.7,0,1.3-0.1,1.6-0.3s0.5-0.6,0.5-1.2v-0.6
			c0-0.5-0.2-0.8-0.5-1.1c-0.3-0.2-0.8-0.4-1.6-0.4H405c-1.7,0-3.1-0.4-4.1-1.2c-1-0.8-1.5-2-1.5-3.8V515c0-1.8,0.6-3.2,1.7-4
			c1.1-0.9,3-1.3,5.7-1.3c1.1,0,2.3,0.1,3.6,0.3c1.3,0.2,2.3,0.4,3,0.6v3h-7.7c-0.7,0-1.2,0.1-1.5,0.3c-0.3,0.2-0.5,0.6-0.5,1.2v0.5
			c0,0.6,0.2,0.9,0.5,1.1s0.9,0.3,1.7,0.3h2.9c1.8,0,3.2,0.4,4,1.2c0.9,0.8,1.3,2,1.3,3.6v1.6c0,1.8-0.6,3.1-1.8,3.8
			c-1.2,0.7-3.1,1.1-5.6,1.1C405.6,528.3,404.3,528.3,402.9,528.1z"/>
		<path class="st7" d="M418.7,526.9c-0.9-1-1.4-2.3-1.4-4.1v-12.9h5v11.4c0,1,0.2,1.7,0.7,2c0.4,0.4,1.1,0.6,2,0.6
			c0.6,0,1.3-0.1,2-0.4c0.7-0.2,1.3-0.6,1.8-1v-12.7h5.1v18.3h-4.2l-0.9-1.9c-2.1,1.4-4.2,2.1-6.2,2.1
			C420.9,528.3,419.6,527.9,418.7,526.9z"/>
		<path class="st7" d="M439.1,526.8c-0.9-1-1.4-2.5-1.4-4.5v-20.1h5v19.3c0,1,0.1,1.7,0.4,2.1s0.8,0.7,1.5,0.8l1.4,0.2v3.6h-2.6
			C441.5,528.2,440,527.7,439.1,526.8z"/>
		<path class="st7" d="M451.8,527.5c-0.9-0.4-1.5-1.1-1.9-2c-0.4-1-0.6-2.2-0.5-3.8l0.2-7.7h-2.9v-3.2l3-0.8l0.7-5.1h4v5.1h4.3v4.1
			h-4.3v7.7c0,0.9,0.2,1.5,0.5,1.9s0.8,0.6,1.3,0.7l2.3,0.2v3.7h-3.3C453.8,528.1,452.7,527.9,451.8,527.5z"/>
		<path class="st10" d="M470.6,508.7c0-2,0.6-3.5,1.7-4.4s2.5-1.3,4.1-1.3c4.5,0,8.1,0.1,10.9,0.4v4.2h-9.5c-0.7,0-1.2,0.2-1.6,0.6
			s-0.5,0.9-0.5,1.4v4.3l10,0.3v4l-10,0.3v9.7h-5v-19.5H470.6z"/>
		<path class="st10" d="M492.3,527.4c-1.2-0.6-2.1-1.5-2.6-2.9c-0.6-1.3-0.8-3.2-0.8-5.6c0-2.5,0.3-4.4,0.8-5.7
			c0.6-1.3,1.4-2.3,2.6-2.8s2.8-0.8,4.9-0.8s3.7,0.3,4.9,0.8c1.2,0.6,2.1,1.5,2.6,2.9c0.6,1.4,0.8,3.2,0.8,5.7
			c0,2.4-0.3,4.3-0.8,5.7c-0.5,1.4-1.4,2.3-2.6,2.9c-1.2,0.6-2.9,0.8-5,0.8C495.1,528.3,493.5,528,492.3,527.4z M499.2,523.9
			c0.5-0.2,0.8-0.7,1-1.5c0.2-0.8,0.3-1.9,0.3-3.5c0-1.6-0.1-2.7-0.3-3.5c-0.2-0.8-0.6-1.3-1-1.5c-0.4-0.2-1.1-0.4-2-0.4
			s-1.5,0.1-2,0.4c-0.5,0.3-0.8,0.7-1,1.5c-0.2,0.8-0.3,1.9-0.3,3.5c0,1.6,0.1,2.7,0.3,3.5c0.2,0.8,0.6,1.3,1,1.5
			c0.4,0.2,1.1,0.4,2,0.4S498.7,524.2,499.2,523.9z"/>
		<path class="st10" d="M510.2,526.9c-0.9-1-1.4-2.3-1.4-4.1v-12.9h5v11.4c0,1,0.2,1.7,0.7,2c0.4,0.4,1.1,0.6,2,0.6
			c0.6,0,1.3-0.1,2-0.4c0.7-0.2,1.3-0.6,1.8-1v-12.7h5.1v18.3h-4.2l-0.9-1.9c-2.1,1.4-4.2,2.1-6.2,2.1
			C512.4,528.3,511.1,527.9,510.2,526.9z"/>
		<path class="st10" d="M529.2,509.9h4.2l0.9,1.9c0.7-0.6,1.6-1.1,2.7-1.5c1-0.4,2.1-0.6,3.1-0.6c2.1,0,3.5,0.6,4.4,1.8
			c0.9,1.2,1.3,2.8,1.3,4.8v12.1h-5V517c0-0.9-0.2-1.5-0.7-2s-1.1-0.7-1.9-0.7c-1.2,0-2.5,0.5-3.8,1.4v12.7h-5v-18.5H529.2z"/>
		<path class="st10" d="M550.5,526.2c-1.1-1.4-1.6-3.8-1.6-7c0-2.3,0.2-4.2,0.6-5.5s1.1-2.4,2.1-3.1s2.4-1,4.1-1
			c1.5,0,3.1,0.3,4.7,0.9v-8.3h5.1v26h-4.3l-0.8-1.7c-0.6,0.5-1.4,1-2.3,1.4c-0.9,0.4-1.8,0.6-2.7,0.6
			C553.2,528.3,551.6,527.6,550.5,526.2z M560.4,523.3v-9.2c-0.6-0.2-1.1-0.4-1.6-0.5s-0.9-0.2-1.4-0.2c-0.9,0-1.6,0.2-2.1,0.5
			s-0.8,0.9-1.1,1.7c-0.2,0.8-0.3,2-0.3,3.5c0,1.4,0.1,2.5,0.3,3.3c0.2,0.8,0.6,1.3,1,1.6c0.5,0.3,1.1,0.5,1.9,0.5
			C558.3,524.3,559.4,523.9,560.4,523.3z"/>
	</g>
</g>
</svg>
