<?xml version="1.0" encoding="utf-8"?>
<!-- Generator: Adobe Illustrator 22.0.0, SVG Export Plug-In . SVG Version: 6.00 Build 0)  -->
<svg version="1.1" id="Capa_1" xmlns="http://www.w3.org/2000/svg" xmlns:xlink="http://www.w3.org/1999/xlink" x="0px" y="0px"
	 viewBox="0 0 29.7 29.7" style="enable-background:new 0 0 29.7 29.7;" xml:space="preserve">
<g>
	<g>
		<path d="M23.9,29.7c-1.2,0-2.7-0.3-4.4-0.9c-3.6-1.4-7.5-4-11-7.6s-6.2-7.4-7.6-11c-1.2-3.3-1.2-6,0-7.2c0.2-0.2,0.4-0.4,0.5-0.6
			C2.6,1.3,3.9-0.1,5.5,0c1.2,0,2.3,0.8,3.4,2.2c3.4,4.2,1.9,5.7,0.1,7.5L8.8,10c-0.3,0.3-0.8,1.6,4.3,6.7c1.7,1.7,3.1,2.9,4.2,3.6
			c0.7,0.5,2,1.2,2.5,0.6l0.3-0.3c1.7-1.8,3.2-3.3,7.5,0.1c1.4,1.1,2.1,2.3,2.2,3.4c0.1,1.7-1.3,3-2.5,4.1c-0.2,0.2-0.4,0.4-0.6,0.5
			C26.1,29.4,25.1,29.7,23.9,29.7z M5.4,1C4.2,1,3.1,2.1,2.2,3.1C2,3.3,1.8,3.5,1.6,3.7C0.7,4.6,0.8,7,1.9,9.9
			c1.3,3.5,3.9,7.3,7.3,10.7s7.2,6,10.7,7.3c2.8,1.1,5.2,1.2,6.1,0.2c0.2-0.2,0.4-0.4,0.6-0.6c1-1,2.2-2.1,2.1-3.3
			c0-0.8-0.6-1.8-1.8-2.7c-3.5-2.8-4.5-1.8-6.1-0.2l-0.3,0.3c-0.8,0.8-2,0.6-3.8-0.5c-1.2-0.8-2.7-2-4.4-3.8l0,0
			C8.1,13.2,6.7,10.6,8,9.3L8.4,9C10,7.3,11,6.3,8.2,2.8C7.2,1.7,6.3,1,5.4,1C5.5,1,5.4,1,5.4,1z"/>
	</g>
	<g>
		<path d="M24.1,12.3c-0.1,0-0.1,0-0.2,0c-0.3-0.1-0.4-0.4-0.3-0.6c0.6-1.6,0.3-3.4-0.9-4.6c-1.2-1.2-3.1-1.6-4.7-0.9
			c-0.2,0.1-0.5,0-0.7-0.2c-0.1-0.3,0-0.5,0.2-0.7c2-0.9,4.3-0.5,5.8,1.1c1.5,1.5,1.9,3.7,1.1,5.6C24.5,12.2,24.3,12.3,24.1,12.3z"
			/>
		<path d="M28.5,14.1c-0.1,0-0.1,0-0.2,0c-0.3-0.1-0.4-0.4-0.3-0.6c1.4-3.4,0.6-7.2-2-9.8C23.5,1,19.4,0.3,16,1.8
			c-0.3,0.1-0.5,0-0.7-0.2c-0.1-0.3,0-0.5,0.2-0.7c3.8-1.7,8.3-0.9,11.2,2c2.9,2.9,3.7,7.1,2.2,10.9C28.9,14,28.7,14.1,28.5,14.1z"
			/>
	</g>
</g>
</svg>
