<?xml version="1.0" encoding="utf-8"?>
<!-- Generator: Adobe Illustrator 22.0.0, SVG Export Plug-In . SVG Version: 6.00 Build 0)  -->
<svg version="1.1" id="Capa_1" xmlns="http://www.w3.org/2000/svg" xmlns:xlink="http://www.w3.org/1999/xlink" x="0px" y="0px"
	 viewBox="0 0 474.6 525.2" style="enable-background:new 0 0 474.6 525.2;" xml:space="preserve">
<style type="text/css">
	.st0{fill:#50C05A;}
</style>
<g>
	<path class="st0" d="M395.5,371.2c-20,0-37.9,7.9-51.6,20.2l-188-109.4c1.4-6.1,2.4-12.2,2.4-18.5c0-6.3-1.1-12.4-2.4-18.5
		l185.9-108.3c14.2,13.1,32.9,21.3,53.7,21.3c43.8,0,79.1-35.3,79.1-79.1c0-43.7-35.3-79.1-79.1-79.1c-43.7,0-79.1,35.3-79.1,79.1
		c0,6.4,1.1,12.4,2.4,18.5L132.9,205.9c-14.2-13.2-32.9-21.4-53.7-21.4C35.3,184.6,0,219.9,0,263.6s35.3,79.1,79.1,79.1
		c20.8,0,39.5-8.2,53.7-21.3L320.6,431c-1.3,5.6-2.1,11.4-2.1,17.2c0,42.5,34.6,77,77,77c42.4,0,77-34.5,77-77
		S437.9,371.2,395.5,371.2z"/>
</g>
</svg>
