<?xml version="1.0" encoding="utf-8"?>
<!-- Generator: Adobe Illustrator 22.0.0, SVG Export Plug-In . SVG Version: 6.00 Build 0)  -->
<svg version="1.1" id="Capa_1" xmlns="http://www.w3.org/2000/svg" xmlns:xlink="http://www.w3.org/1999/xlink" x="0px" y="0px"
	 viewBox="0 0 201.6 173.2" style="enable-background:new 0 0 201.6 173.2;" xml:space="preserve">
<style type="text/css">
	.st0{fill:#50C05A;}
</style>
<path class="st0" d="M167.3,173.2H24.2C10.9,173.2,0,162.4,0,149V49.5c0-13.4,10.9-24.2,24.2-24.2H65l68-25.1
	c0.8-0.3,1.6-0.2,2.3,0.1c0.7,0.4,1.3,1,1.5,1.8l2.9,8.7l17.8-5.7c0.8-0.2,1.6-0.2,2.4,0.2c0.7,0.4,1.2,1.1,1.5,1.9l4.7,18h1.1
	c13.4,0,24.2,10.9,24.2,24.2v24.9c5.8,1.6,10,6.9,10,13.2v23.2c0,6.3-4.3,11.6-10,13.2V149C191.5,162.4,180.7,173.2,167.3,173.2z
	 M24.2,31.2C14.2,31.2,6,39.4,6,49.5V149c0,10.1,8.2,18.2,18.2,18.2h143.1c10.1,0,18.2-8.2,18.2-18.2v-24.4H132c-7.2,0-13-5.9-13-13
	V86.9c0-7.2,5.9-13,13-13h53.5V49.5c0-10.1-8.2-18.2-18.2-18.2h-3.4c0,0-0.1,0-0.1,0h-21.2c0,0-0.1,0-0.1,0H65.6c0,0-0.1,0-0.1,0
	H24.2z M124.9,110.8c0,4.3,3.5,7.8,7.7,7.8h55.1c4.3,0,7.8-3.5,7.8-7.8V87.6c0-4.3-3.5-7.8-7.8-7.8h-55.1c-4.3,0-7.8,3.5-7.8,7.8
	C124.9,87.6,124.9,110.8,124.9,110.8z M144.6,25.2h15.3l-3.5-13.4l-14.8,4.7L144.6,25.2z M82.4,25.2h55.9l-3.2-9.7c0,0,0-0.1,0-0.1
	c0,0,0,0,0,0l-2.8-8.6L82.4,25.2z M142.4,110.6c-6.3,0-11.4-5.1-11.4-11.4c0-6.3,5.1-11.4,11.4-11.4c6.3,0,11.4,5.1,11.4,11.4
	C153.8,105.5,148.7,110.6,142.4,110.6z M142.4,93.9c-3,0-5.4,2.4-5.4,5.4s2.4,5.4,5.4,5.4s5.4-2.4,5.4-5.4S145.4,93.9,142.4,93.9z"
	/>
</svg>
