<?xml version="1.0" encoding="utf-8"?>
<!-- Generator: Adobe Illustrator 22.0.0, SVG Export Plug-In . SVG Version: 6.00 Build 0)  -->
<svg version="1.1" id="Capa_1" xmlns="http://www.w3.org/2000/svg" xmlns:xlink="http://www.w3.org/1999/xlink" x="0px" y="0px"
	 viewBox="0 0 39.6 26.9" style="enable-background:new 0 0 39.6 26.9;" xml:space="preserve">
<style type="text/css">
	.st0{fill:#50C05A;}
</style>
<g>
	<path class="st0" d="M19.8,26.9c-13.1,0-19.7-13-19.8-13.2C0,13.7,0,13.6,0,13.5v-0.1c0-0.1,0-0.2,0.1-0.2C0.1,13,6.7,0,19.8,0
		c13.1,0,19.7,13,19.8,13.2c0,0.1,0.1,0.1,0.1,0.2v0.1c0,0.1,0,0.2-0.1,0.2C39.5,13.9,32.9,26.9,19.8,26.9z M1,13.5
		c0.8,1.4,7.1,12.5,18.8,12.5c11.7,0,18-11,18.8-12.5C37.8,12,31.5,1,19.8,1C8.1,1,1.8,12,1,13.5z"/>
	<path class="st0" d="M19.8,20c-3.5,0-6.4-2.9-6.4-6.4c0-3.5,2.9-6.4,6.4-6.4s6.4,2.9,6.4,6.4C26.2,17.1,23.4,20,19.8,20z M19.8,8.1
		c-3,0-5.4,2.4-5.4,5.4c0,3,2.4,5.4,5.4,5.4c3,0,5.4-2.4,5.4-5.4C25.2,10.5,22.8,8.1,19.8,8.1z"/>
	<circle class="st0" cx="19.8" cy="13.5" r="2.1"/>
</g>
</svg>
