<?xml version="1.0" encoding="utf-8"?>
<!-- Generator: Adobe Illustrator 24.1.3, SVG Export Plug-In . SVG Version: 6.00 Build 0)  -->
<svg version="1.1" id="Layer_1" xmlns="http://www.w3.org/2000/svg" xmlns:xlink="http://www.w3.org/1999/xlink" x="0px" y="0px"
	 viewBox="0 0 30.2 36" style="enable-background:new 0 0 30.2 36;" xml:space="preserve">
<style type="text/css">
	.st0{fill:#F2C291;}
	.st1{fill:#FFCE99;}
	.st2{fill:#E2B288;}
	.st3{fill:#405463;}
	.st4{fill:#F9B050;}
	.st5{fill:#F3AE29;}
	.st6{fill:#FCD681;}
	.st7{fill:#FACC44;}
</style>
<g id="handshake" transform="translate(-19.634 -13.695)">
	<g id="Group_2331" transform="translate(19.634 13.695)">
		<path id="Path_1335" class="st0" d="M26.5,26c-0.8,0.8-1.6,1.6-2.4,2.3c0,0-5.6,8.7-14.1,4.4c-5.7-2.9-3.4-6.6-1.3-8.7
			c0.1-0.8,0.4-1.5,0.8-2.1c0.4-0.7,0.8-1.3,1.4-1.8c1.7-1.4,4-1.9,6.1-1.3c3,0.7,4.7,0.5,5.6,0.3L26.5,26z"/>
		<path id="Path_1336" class="st1" d="M23.7,30.5c0,1-0.3,2.2-2,1.7c0,0.9-0.2,2-1.8,1.9c-0.2,0.6-0.8,1.3-2.5,1.4
			c-1.4,0-2.7-0.4-3.8-1.3l-7.1-5.3c-0.4-0.3-0.7-0.6-1-1L3.8,26l-0.1-0.2l4-6.8l0.1,0.1c1.3,0.7,2.8,1.1,4.3,1
			c0.3-0.1,0.6-0.1,0.9-0.2c0.8-0.2,1.6-0.2,2.4-0.2c1.1,0,2.1,0.1,3.1,0.4c1.1,0.2,2,0.7,2.8,1.5c0.1,0.2,0.3,0.4,0.3,0.6
			c0.1,0.4,0.1,0.8,0,1.1c-0.3,0.8-1.3,1-2.1,1.1l5.7,4l0.2,0.1C25.6,28.5,26.3,31.3,23.7,30.5z"/>
		<path id="Path_1337" class="st2" d="M22.5,19.9c-0.1,0-0.3,0.1-0.4,0.1l0,0C22.2,20,22.4,19.9,22.5,19.9z"/>
		<path id="Path_1338" class="st0" d="M19.5,34.1l-0.6,0.1c0,0,0-0.1,0-0.1C19.1,34.1,19.3,34.1,19.5,34.1z"/>
		<g id="Group_2328" transform="translate(14.912 27.011)">
			<path id="Path_1339" class="st1" d="M4.2,7C4.3,7,4.4,7,4.4,7.1c-0.2,0-0.4,0-0.5,0c0,0,0,0.1,0,0.1C2.5,6.4,1.2,5.5,0,4.6
				C1.4,5.5,2.8,6.3,4.2,7z"/>
			<path id="Path_1340" class="st1" d="M6.5,5.3c-0.3,0-0.5,0-0.8-0.1c0,0.1,0,0.1,0,0.2C5.5,5.3,5.2,5.2,5,5
				C3.5,4.2,2.2,3.3,0.9,2.3C2.2,3.2,3.7,4,5.1,4.7C5.6,4.9,6.1,5.1,6.5,5.3z"/>
			<path id="Path_1341" class="st1" d="M9.1,3.5c-0.4,0.1-0.9,0.1-1.4,0c0,0.1,0,0.1,0,0.2c-0.7-0.3-1.3-0.6-2-1C4.4,1.9,3,1,1.7,0
				c1.4,0.9,2.8,1.7,4.2,2.4c0.7,0.3,1.5,0.6,2.2,0.9C8.5,3.4,8.8,3.5,9.1,3.5z"/>
		</g>
		<g id="Group_2329" transform="translate(4.254 18.587)">
			<path id="Path_1342" class="st0" d="M16.2,13.6c0,0.1,0,0.1,0,0.2c-0.3-0.1-0.5-0.3-0.8-0.4c-1.4-0.8-2.8-1.7-4.1-2.7
				c1.4,0.9,2.8,1.7,4.2,2.4c0.5,0.2,0.9,0.4,1.4,0.6C16.7,13.7,16.4,13.7,16.2,13.6L16.2,13.6z"/>
			<path id="Path_1343" class="st0" d="M14.9,15.5l-0.6,0.1c-1.3-0.8-2.6-1.6-3.9-2.6c1.4,0.9,2.8,1.7,4.2,2.4
				C14.8,15.4,14.9,15.4,14.9,15.5z"/>
			<path id="Path_1344" class="st0" d="M19.4,11.9c-0.4,0.1-0.9,0.1-1.4,0c0,0.1,0,0.1,0,0.2c-0.7-0.3-1.3-0.6-2-1
				c-1.4-0.8-2.8-1.7-4.1-2.7c1.4,0.9,2.8,1.7,4.2,2.4c0.7,0.3,1.5,0.6,2.2,0.9C18.7,11.8,19.1,11.9,19.4,11.9z"/>
			<path id="Path_1345" class="st0" d="M22.3,7.3l-0.1,0.2c-0.8,0.8-1.6,1.6-2.4,2.3L9.9,3.3L8.5,3.8c0,0-0.3,1.5-2.9,2.2
				S5.1,3.3,5.1,3.3C5.5,2.6,5.9,2,6.5,1.5c1.7-1.4,4-1.9,6.1-1.3c3,0.7,4.7,0.5,5.6,0.3l0.1-0.1L22.3,7.3z"/>
			<path id="Path_1346" class="st0" d="M4.6,16l-0.4-0.3c-0.4-0.3-0.5-1-0.2-1.4L6.6,11c0.3-0.4,1-0.5,1.4-0.2l0.4,0.3
				c0.4,0.3,0.5,1,0.2,1.4L6,15.9C5.6,16.3,5,16.4,4.6,16z"/>
			<path id="Path_1347" class="st0" d="M2.6,14.6L2,14.1c-0.4-0.3-0.5-1-0.2-1.4L4.7,9c0.3-0.4,1-0.5,1.4-0.2l0.6,0.5
				c0.4,0.3,0.5,1,0.2,1.4L4,14.5C3.7,14.9,3,15,2.6,14.6z"/>
			<path id="Path_1348" class="st0" d="M0.8,12.3l-0.5-0.4c-0.4-0.3-0.5-1-0.2-1.4L1.4,9c0.3-0.4,1-0.5,1.4-0.2l0.5,0.4
				c0.4,0.3,0.5,1,0.2,1.4l-1.2,1.5C1.9,12.6,1.3,12.6,0.8,12.3z"/>
			<path id="Path_1349" class="st0" d="M7,17.2l-0.5-0.4c-0.4-0.3-0.5-1-0.2-1.4l1.6-2c0.3-0.4,1-0.5,1.4-0.2l0.5,0.4
				c0.4,0.3,0.5,1,0.2,1.4l-1.6,2C8.1,17.5,7.4,17.5,7,17.2C7,17.2,7,17.2,7,17.2z"/>
		</g>
		<path id="Path_1350" class="st3" d="M29.9,26.6L28,27.7c-0.3,0.2-0.8,0.1-1-0.3l-0.5-0.9l-4-6.9l-0.6-1c-0.2-0.3-0.1-0.8,0.3-1
			l1.9-1.1c0.3-0.2,0.8-0.1,1,0.3l5.1,8.8C30.3,26,30.2,26.4,29.9,26.6z"/>
		<path id="Path_1351" class="st0" d="M8.5,20L8.5,20c-0.2-0.1-0.5-0.2-0.7-0.3l-0.1-0.1l-4,6.8l0.1,0.2l0.5,0.6L4.5,27l0,0L8.5,20
			L8.5,20z"/>
		<path id="Path_1352" class="st3" d="M8.3,18.8l-0.5,0.9l-4,6.9l0,0l-0.6,1.1c-0.2,0.3-0.6,0.5-1,0.3l-1.9-1.1
			c-0.3-0.2-0.5-0.6-0.3-1L5.2,17c0.2-0.3,0.6-0.5,1-0.3l1.9,1.1C8.4,18,8.5,18.5,8.3,18.8L8.3,18.8z"/>
		<path id="Path_1353" class="st2" d="M21.7,19.8L21.7,19.8l0.1,0.2l4,6.9l0.1,0.2l0,0c0.2-0.2,0.4-0.4,0.5-0.6l-4-6.9
			C22.2,19.7,22,19.7,21.7,19.8L21.7,19.8z"/>
		<g id="Group_2330" transform="translate(6.279)">
			<circle id="Ellipse_4" class="st4" cx="8.9" cy="8.9" r="8.9"/>
			<path id="Path_1354" class="st5" d="M4.5,16.6L4.5,16.6c4.2,2.5,9.7,1.2,12.2-3s1.2-9.7-3-12.2c-0.1-0.1-0.3-0.2-0.4-0.2h0
				L4.5,16.6z"/>
			<circle id="Ellipse_5" class="st6" cx="8.9" cy="8.9" r="6.7"/>
			<path id="Path_1355" class="st7" d="M12.2,3.1L5.6,14.7c3.2,1.9,7.3,0.8,9.1-2.4s0.8-7.3-2.4-9.1C12.3,3.1,12.2,3.1,12.2,3.1z"/>
		</g>
		<path id="Path_1356" class="st3" d="M15.2,8.6c-0.7,0-1.3-0.6-1.3-1.3c0-0.7,0.6-1.3,1.3-1.3s1.3,0.6,1.3,1.3
			c0,0.2,0.1,0.3,0.3,0.3S17,7.5,17,7.3c0,0,0,0,0,0c0-0.9-0.6-1.6-1.5-1.8v-1c0-0.2-0.1-0.3-0.3-0.3S15,4.3,15,4.5c0,0,0,0,0,0v1
			c-1,0.1-1.8,1-1.7,2c0.1,1,0.9,1.7,1.9,1.7c0.7,0,1.3,0.6,1.3,1.3c0,0.7-0.6,1.3-1.3,1.3s-1.3-0.6-1.3-1.3c0-0.2-0.1-0.3-0.3-0.3
			s-0.3,0.1-0.3,0.3c0,0,0,0,0,0c0,1,0.7,1.7,1.7,1.8v1c0,0.2,0.1,0.3,0.3,0.3s0.3-0.1,0.3-0.3c0,0,0,0,0,0v-1
			c1-0.2,1.6-1.2,1.4-2.2C16.8,9.2,16.1,8.6,15.2,8.6L15.2,8.6z"/>
	</g>
</g>
</svg>
