<?xml version="1.0" encoding="utf-8"?>
<!-- Generator: Adobe Illustrator 24.1.3, SVG Export Plug-In . SVG Version: 6.00 Build 0)  -->
<svg version="1.1" id="Layer_1" xmlns="http://www.w3.org/2000/svg" xmlns:xlink="http://www.w3.org/1999/xlink" x="0px" y="0px"
	 viewBox="0 0 36 36" style="enable-background:new 0 0 36 36;" xml:space="preserve">
<style type="text/css">
	.st0{fill:#FC5832;}
	.st1{fill:#F5F2F1;}
	.st2{fill:#E8E1DE;}
	.st3{fill:#3BC9EA;}
	.st4{fill:#13B8E5;}
	.st5{fill:#D69A8B;}
	.st6{fill:#C28678;}
	.st7{fill:#55696E;}
	.st8{fill:#00A4DC;}
</style>
<g id="leadership" transform="translate(0 -0.001)">
	<path id="Path_1369" class="st0" d="M35.4,6.2l-7.9,4L27.1,10V0.9l0.4-0.5l7.9,3.9c0.5,0.3,0.7,0.9,0.5,1.4
		C35.8,6,35.6,6.1,35.4,6.2z"/>
	<path id="Path_1370" class="st1" d="M9.6,21.1l-0.7,1.1v13.1c0,0.4,0.3,0.7,0.7,0.7h0h3.6V21.1H9.6z"/>
	<path id="Path_1371" class="st2" d="M17.4,22.2l-0.7-1.1h-3.6V36h3.6c0.4,0,0.7-0.3,0.7-0.7l0,0V22.2z"/>
	<path id="Path_1372" class="st3" d="M26.5,14.9v-4.2l-8.9-2.1c-0.1,0-0.2,0-0.3,0H4.3V2.9c0-0.4-0.3-0.7-0.7-0.7c0,0,0,0,0,0H0.7
		C0.3,2.2,0,2.5,0,2.9c0,0,0,0,0,0V12c0,0.4,0.3,0.7,0.7,0.7c0,0,0,0,0,0h8.2v7.4l0.7,1.1h7.1l0.7-1.1v-7.2L26.5,14.9z"/>
	<path id="Path_1373" class="st4" d="M26.4,10.6v4.2l-9-2v7.3l-0.7,1.1h-3.6V8.5h4.2c0.1,0,0.2,0,0.3,0L26.4,10.6z"/>
	<ellipse id="Ellipse_6" class="st5" cx="13.2" cy="4.3" rx="4.3" ry="4.3"/>
	<path id="Path_1374" class="st6" d="M17.4,4.3c0,2.4-1.9,4.3-4.3,4.3V0C15.5,0,17.4,1.9,17.4,4.3z"/>
	<path id="Path_1375" class="st7" d="M27.5,0.4v34.5c0,0.6-0.5,1.1-1.1,1.1c-0.6,0-1.1-0.5-1.1-1.1V1.1c0-0.6,0.5-1.1,1.1-1.1
		c0.2,0,0.3,0,0.5,0.1L27.5,0.4z"/>
	<path id="Path_1376" class="st4" d="M8.9,20.1h8.5v2.1H8.9L8.9,20.1z"/>
	<path id="Path_1377" class="st8" d="M13.2,20.1h4.3v2.1h-4.3V20.1z"/>
</g>
</svg>
