<?xml version="1.0" encoding="utf-8"?>
<!-- Generator: Adobe Illustrator 24.1.3, SVG Export Plug-In . SVG Version: 6.00 Build 0)  -->
<svg version="1.1" id="inventory" xmlns="http://www.w3.org/2000/svg" xmlns:xlink="http://www.w3.org/1999/xlink" x="0px" y="0px"
	 viewBox="0 0 36 36" style="enable-background:new 0 0 36 36;" xml:space="preserve">
<style type="text/css">
	.st0{fill:#FFDF40;}
	.st1{fill:#4D5E80;}
	.st2{fill:#FFEBD6;}
	.st3{fill:#FFBE40;}
	.st4{fill:#FFDFBD;}
	.st5{fill:#3D4566;}
</style>
<g id="Group_2333" transform="translate(4.366 2.29)">
	<g id="Group_2332">
		<path id="Path_1357" class="st0" d="M7.5,0L6.4,2.1L5.4,0H0v12.9h12.9V0H7.5z"/>
	</g>
</g>
<g id="Inventory_2_" transform="translate(1.074 12.767)">
	<g id="Group_2334">
		<path id="Path_1358" class="st1" d="M33.9,4.3H0V0h33.9V4.3z"/>
	</g>
</g>
<g id="Group_2336" transform="translate(9.552 2.29)">
	<g id="Group_2335">
		<path id="Path_1359" class="st2" d="M0,0h2.1v4.3H0V0z"/>
	</g>
</g>
<g id="Group_2338" transform="translate(4.366 18.824)">
	<g id="Group_2337">
		<path id="Path_1360" class="st0" d="M7.5,0L6.4,2.1L5.4,0H0v12.9h12.9V0H7.5z"/>
	</g>
</g>
<g id="Group_2340" transform="translate(9.552 19.08)">
	<g id="Group_2339">
		<path id="Path_1361" class="st2" d="M0,0h2.1v4.3H0V0z"/>
	</g>
</g>
<g id="Group_2342" transform="translate(18.752 18.824)">
	<g id="Group_2341">
		<path id="Path_1362" class="st3" d="M7.5,0L6.4,2.1L5.4,0H0v12.9h12.9V0H7.5z"/>
	</g>
</g>
<g id="Group_2344" transform="translate(24.301 19.08)">
	<g id="Group_2343">
		<path id="Path_1363" class="st4" d="M0,0h2.1v4.3H0V0z"/>
	</g>
</g>
<g id="Group_2345" transform="translate(1.074 29.559)">
	<path id="Path_1364" class="st1" d="M33.9,4.3H0V0h33.9V4.3z"/>
</g>
<g id="Group_2347">
	<g id="Group_2346">
		<path id="Path_1365" class="st1" d="M0,0h2.1v36H0V0z"/>
	</g>
</g>
<path id="Path_1366" class="st5" d="M17.7,29.6h17.2v4.3H17.7V29.6z"/>
<path id="Path_1367" class="st5" d="M17.7,12.8h17.2v4.3H17.7V12.8z"/>
<g id="Group_2348" transform="translate(33.853)">
	<path id="Path_1368" class="st5" d="M0,0h2.1v36H0V0z"/>
</g>
</svg>
